<svg width="198" height="255" viewBox="0 0 198 255" fill="none" xmlns="http://www.w3.org/2000/svg">
<rect width="198" height="255" fill="white"/>
<mask id="mask0" mask-type="alpha" maskUnits="userSpaceOnUse" x="0" y="0" width="198" height="255">
<rect width="198" height="255" fill="white"/>
</mask>
<g mask="url(#mask0)">
<ellipse opacity="0.3" cx="98.5" cy="230.5" rx="210.5" ry="128.5" fill="#B0B0B0"/>
<path d="M103.104 87.326C109.078 83.0592 117.372 87.3555 117.334 94.697L117.155 128.959C117.12 135.685 109.988 139.997 104.016 136.903L76.313 122.554C70.3406 119.46 69.7483 111.147 75.2219 107.238L103.104 87.326Z" fill="#1865AA"/>
<path opacity="0.4" d="M-4.04335 193.066C-2.1881 180.134 14.164 175.59 22.4251 185.711L63.815 236.419C70.6597 244.805 66.6398 257.459 56.2105 260.357L5.52532 274.441C-4.90401 277.339 -14.8758 268.573 -13.3386 257.858L-4.04335 193.066Z" fill="white"/>
<path opacity="0.67" d="M171.633 58.2589C172.993 48.7754 184.985 45.4432 191.043 52.8652L222.807 91.7805C227.826 97.93 224.879 107.209 217.23 109.335L178.333 120.143C170.685 122.268 163.372 115.84 164.499 107.983L171.633 58.2589Z" fill="#F7F8F9"/>
</g>
<g clip-path="url(#clip0)">
<path d="M97.3289 113.063L95.2572 115.135C95.0894 115.303 95.0894 115.575 95.2572 115.743C95.3411 115.827 95.4511 115.869 95.561 115.869C95.671 115.869 95.781 115.827 95.8649 115.743L97.9366 113.671C98.1043 113.503 98.1043 113.231 97.9366 113.063C97.7688 112.896 97.4967 112.896 97.3289 113.063Z" fill="white"/>
<path d="M102.133 108.259L100.063 110.329C99.8956 110.497 99.8956 110.769 100.063 110.937C100.147 111.021 100.257 111.063 100.367 111.063C100.477 111.063 100.587 111.021 100.671 110.937L102.741 108.867C102.909 108.699 102.909 108.427 102.741 108.259C102.573 108.091 102.301 108.091 102.133 108.259Z" fill="white"/>
<path d="M108.07 115.783C107.247 115.308 106.3 115.154 105.378 115.34L102.037 112L105.38 108.657C105.63 108.707 105.88 108.731 106.129 108.731C107.485 108.731 108.778 108.013 109.481 106.797C110.124 105.682 110.171 104.324 109.606 103.165C109.419 102.781 109.176 102.581 108.886 102.57C108.6 102.561 108.354 102.733 108.151 103.083L107.485 104.237C107.372 104.433 107.314 104.433 107.217 104.433H106.723C106.415 104.433 106.362 104.403 106.208 104.136L105.961 103.708C105.911 103.622 105.883 103.574 105.997 103.377L106.663 102.224C106.865 101.874 106.891 101.573 106.74 101.331C106.586 101.085 106.292 100.975 105.865 101.005C104.579 101.095 103.426 101.814 102.782 102.929C102.308 103.752 102.153 104.699 102.339 105.621L98.9992 108.962L95.6565 105.619C95.9764 104.008 95.2352 102.349 93.7959 101.518C92.6806 100.875 91.323 100.828 90.1642 101.393C89.7798 101.58 89.5797 101.823 89.5696 102.113C89.5596 102.398 89.7321 102.646 90.0823 102.848L91.2359 103.514C91.4324 103.627 91.4324 103.682 91.4324 103.782V104.276C91.4324 104.584 91.4018 104.637 91.1349 104.791L90.707 105.038C90.6206 105.088 90.573 105.116 90.3765 105.002L89.2229 104.336C88.8727 104.134 88.5724 104.108 88.3305 104.259C88.084 104.413 87.9741 104.708 88.0039 105.134C88.0939 106.421 88.8133 107.573 89.9285 108.217C90.7509 108.692 91.6978 108.846 92.6205 108.66L95.9607 112L92.618 115.343C91.007 115.023 89.3486 115.764 88.5175 117.203C87.8737 118.318 87.8267 119.676 88.3919 120.835C88.5794 121.219 88.8218 121.419 89.1123 121.429C89.3978 121.44 89.6445 121.267 89.8467 120.917L90.5128 119.763C90.6262 119.567 90.6812 119.567 90.781 119.567H91.275C91.5832 119.567 91.6362 119.597 91.7903 119.864L92.0373 120.292C92.0872 120.378 92.1147 120.426 92.0013 120.623L91.3352 121.776C91.133 122.126 91.1072 122.427 91.2584 122.669C91.396 122.889 91.6455 123 92.0011 123C92.0437 123 92.0879 122.998 92.1335 122.995C93.4197 122.905 94.5719 122.186 95.2157 121.071C95.6906 120.248 95.8448 119.301 95.6589 118.379L98.999 115.038L102.342 118.381C102.022 119.992 102.763 121.651 104.202 122.482C104.8 122.826 105.466 123 106.135 123C106.715 123 107.296 122.87 107.834 122.607C108.218 122.42 108.418 122.177 108.428 121.887C108.438 121.602 108.266 121.355 107.916 121.152L106.762 120.486C106.566 120.373 106.566 120.318 106.566 120.218V119.724C106.566 119.416 106.596 119.363 106.863 119.209L107.291 118.962C107.377 118.912 107.425 118.884 107.621 118.998L108.775 119.664C109.125 119.866 109.426 119.892 109.668 119.741C109.914 119.587 110.024 119.292 109.994 118.866C109.904 117.579 109.185 116.427 108.07 115.783ZM93.0592 107.883C92.9505 107.775 92.7921 107.732 92.6437 107.772C91.8667 107.981 91.055 107.875 90.3582 107.472C89.5046 106.98 88.9491 106.103 88.865 105.122L89.9469 105.747C90.2157 105.902 90.6315 106.074 91.1368 105.783L91.5647 105.536C92.0948 105.229 92.2919 104.888 92.2919 104.276V103.782C92.2918 103.198 91.9344 102.925 91.6656 102.769L90.5838 102.145C91.4759 101.727 92.5125 101.77 93.3661 102.263C94.5428 102.942 95.1197 104.332 94.7689 105.643C94.7292 105.791 94.7716 105.95 94.8802 106.058L98.3914 109.569L97.7838 110.177L95.8659 108.259C95.6981 108.091 95.426 108.091 95.2582 108.259C95.0904 108.427 95.0904 108.699 95.2582 108.867L97.176 110.785L96.5683 111.392L93.0592 107.883ZM94.8822 117.94C94.7735 118.049 94.7312 118.207 94.7711 118.355C94.9802 119.132 94.8738 119.944 94.4715 120.641C93.9787 121.494 93.1026 122.05 92.1209 122.134L92.7456 121.052C92.9007 120.783 93.0733 120.368 92.7816 119.862L92.5346 119.434C92.2285 118.904 91.8872 118.707 91.2751 118.707H90.781C90.1976 118.707 89.9237 119.065 89.7685 119.333L89.1439 120.415C88.7259 119.523 88.7689 118.487 89.2618 117.633C89.9412 116.456 91.3312 115.879 92.6422 116.23C92.7904 116.27 92.9486 116.228 93.0571 116.119L103.116 106.06C103.225 105.951 103.267 105.793 103.227 105.645C103.018 104.868 103.124 104.056 103.527 103.359C104.019 102.506 104.896 101.95 105.877 101.866L105.253 102.948C105.097 103.217 104.925 103.632 105.217 104.138L105.464 104.566C105.77 105.096 106.111 105.293 106.723 105.293H107.217C107.801 105.293 108.074 104.935 108.23 104.667L108.854 103.585C109.272 104.477 109.229 105.513 108.736 106.367C108.057 107.544 106.667 108.121 105.356 107.77C105.208 107.73 105.05 107.773 104.941 107.881L94.8822 117.94ZM108.051 118.254C107.782 118.098 107.366 117.926 106.861 118.217L106.433 118.465C105.903 118.771 105.706 119.112 105.706 119.724V120.218C105.706 120.802 106.064 121.075 106.333 121.231L107.414 121.855C106.522 122.273 105.486 122.23 104.632 121.737C103.455 121.058 102.878 119.668 103.229 118.357C103.269 118.209 103.227 118.05 103.118 117.942L99.6068 114.431L100.214 113.823L102.134 115.743C102.218 115.827 102.328 115.869 102.438 115.869C102.548 115.869 102.658 115.827 102.742 115.743C102.91 115.575 102.91 115.303 102.742 115.135L100.822 113.215L101.43 112.608L104.939 116.117C105.048 116.225 105.206 116.268 105.354 116.228C106.131 116.019 106.943 116.125 107.64 116.528C108.494 117.02 109.049 117.897 109.133 118.878L108.051 118.254Z" fill="white"/>
<path d="M99.0001 111.57H98.9998C98.7625 111.57 98.5703 111.763 98.5703 112C98.5703 112.237 98.7628 112.43 99.0001 112.43C99.2374 112.43 99.4298 112.237 99.4298 112C99.4298 111.763 99.2374 111.57 99.0001 111.57Z" fill="white"/>
</g>
<path d="M167.71 17.2099C169.701 15.7876 172.466 17.2197 172.453 19.6669L172.363 37.02C172.351 39.262 169.974 40.6994 167.983 39.6682L153.952 32.4004C151.961 31.3692 151.764 28.5982 153.588 27.2952L167.71 17.2099Z" fill="#C92020"/>
<defs>
<clipPath id="clip0">
<rect width="22" height="22" fill="white" transform="translate(88 101)"/>
</clipPath>
</defs>
</svg>
