<svg width="32" height="32" viewBox="0 0 32 32" fill="none" xmlns="http://www.w3.org/2000/svg">
<path d="M28.875 2.75H25.8958V1.875C25.8958 0.841125 25.0547 0 24.0208 0C22.9869 0 22.1458 0.841125 22.1458 1.875V2.75H11.6458V1.875C11.6458 0.841125 10.8047 0 9.77081 0C8.73694 0 7.89581 0.841125 7.89581 1.875V2.77312C7.84269 2.75844 7.787 2.75 7.72919 2.75H5.23894C3.51581 2.75 2.11394 4.15188 2.11394 5.875V16.5208C2.11394 16.866 2.39381 17.1458 2.73894 17.1458C3.08406 17.1458 3.36394 16.866 3.36394 16.5208V9.1875H25.8958C26.2409 9.1875 26.5208 8.90769 26.5208 8.5625C26.5208 8.21731 26.2409 7.9375 25.8958 7.9375H3.36394V5.875C3.36394 4.84113 4.20506 4 5.23894 4H7.72919C7.787 4 7.84269 3.9915 7.89581 3.97688V4.78125C7.89581 5.81512 8.73694 6.65625 9.77081 6.65625C10.8047 6.65625 11.6458 5.81512 11.6458 4.78125V4H22.1458V4.78125C22.1458 5.81512 22.9869 6.65625 24.0208 6.65625C25.0547 6.65625 25.8958 5.81512 25.8958 4.78125V4H28.875C29.9089 4 30.75 4.84113 30.75 5.875V29.6246C30.75 30.2451 30.2452 30.75 29.6246 30.75C29.0041 30.75 28.4993 30.2451 28.4993 29.6246V28.0078C28.4993 27.6626 28.2194 27.3828 27.8743 27.3828H20.6042C20.2591 27.3828 19.9792 27.6626 19.9792 28.0078C19.9792 28.353 20.2591 28.6328 20.6042 28.6328H27.2493V29.6246C27.2493 30.0316 27.3522 30.4148 27.5333 30.75H2.375C1.75469 30.75 1.25 30.2453 1.25 29.625V28.6328H15.2391C15.5842 28.6328 15.8641 28.353 15.8641 28.0078C15.8641 27.6626 15.5842 27.3828 15.2391 27.3828H8.99431C10.0864 26.4422 10.7799 25.051 10.7799 23.5C10.7799 20.6741 8.48088 18.375 5.65494 18.375C2.829 18.375 0.529938 20.6741 0.529938 23.5C0.529938 25.051 1.22344 26.4422 2.31556 27.3828H0.625C0.279875 27.3828 0 27.6626 0 28.0078V29.625C0 30.9346 1.06544 32 2.375 32H29.6246C30.9344 32 32 30.9344 32 29.6246V5.875C32 4.15188 30.5981 2.75 28.875 2.75ZM10.3958 4.78125C10.3958 5.12587 10.1154 5.40625 9.77081 5.40625C9.42619 5.40625 9.14581 5.12587 9.14581 4.78125V1.875C9.14581 1.53038 9.42619 1.25 9.77081 1.25C10.1154 1.25 10.3958 1.53038 10.3958 1.875V4.78125ZM24.6458 4.78125C24.6458 5.12587 24.3654 5.40625 24.0208 5.40625C23.6762 5.40625 23.3958 5.12587 23.3958 4.78125V1.875C23.3958 1.53038 23.6762 1.25 24.0208 1.25C24.3654 1.25 24.6458 1.53038 24.6458 1.875V4.78125ZM1.77994 23.5C1.77994 21.3633 3.51825 19.625 5.65494 19.625C7.79163 19.625 9.52994 21.3633 9.52994 23.5C9.52994 25.6367 7.79163 27.375 5.65494 27.375C3.51825 27.375 1.77994 25.6367 1.77994 23.5Z" fill="white"/>
<path d="M29.2692 8.12062C29.153 8.00437 28.9918 7.9375 28.8274 7.9375C28.663 7.9375 28.5018 8.00437 28.3855 8.12062C28.2693 8.23687 28.2024 8.39812 28.2024 8.5625C28.2024 8.72688 28.2692 8.88813 28.3855 9.00438C28.5018 9.12063 28.663 9.1875 28.8274 9.1875C28.9918 9.1875 29.153 9.12063 29.2692 9.00438C29.3855 8.88813 29.4524 8.72688 29.4524 8.5625C29.4524 8.39812 29.3855 8.23687 29.2692 8.12062Z" fill="white"/>
<path d="M18.6654 27.5658C18.5493 27.4495 18.388 27.3833 18.2236 27.3833C18.0593 27.3833 17.898 27.4495 17.7818 27.5658C17.6655 27.6827 17.5986 27.8433 17.5986 28.0077C17.5986 28.1727 17.6654 28.3333 17.7818 28.4502C17.898 28.5664 18.0593 28.6327 18.2236 28.6327C18.388 28.6327 18.5493 28.5664 18.6654 28.4502C18.7817 28.3333 18.8486 28.1721 18.8486 28.0077C18.8486 27.8433 18.7818 27.6827 18.6654 27.5658Z" fill="white"/>
<path d="M14.1401 19C12.8306 19 11.7651 20.0654 11.7651 21.375C11.7651 22.6846 12.8306 23.75 14.1401 23.75C15.4497 23.75 16.5151 22.6846 16.5151 21.375C16.5151 20.0654 15.4497 19 14.1401 19ZM14.1401 22.5C13.5198 22.5 13.0151 21.9953 13.0151 21.375C13.0151 20.7547 13.5198 20.25 14.1401 20.25C14.7604 20.25 15.2651 20.7547 15.2651 21.375C15.2651 21.9953 14.7604 22.5 14.1401 22.5Z" fill="white"/>
<path d="M19.9736 19C18.6641 19 17.5986 20.0654 17.5986 21.375C17.5986 22.6846 18.6641 23.75 19.9736 23.75C21.2832 23.75 22.3486 22.6846 22.3486 21.375C22.3486 20.0654 21.2832 19 19.9736 19ZM19.9736 22.5C19.3533 22.5 18.8486 21.9953 18.8486 21.375C18.8486 20.7547 19.3533 20.25 19.9736 20.25C20.5939 20.25 21.0986 20.7547 21.0986 21.375C21.0986 21.9953 20.5939 22.5 19.9736 22.5Z" fill="white"/>
<path d="M25.8069 19C24.4973 19 23.4319 20.0654 23.4319 21.375C23.4319 22.6846 24.4973 23.75 25.8069 23.75C27.1164 23.75 28.1819 22.6846 28.1819 21.375C28.1819 20.0654 27.1164 19 25.8069 19ZM25.8069 22.5C25.1866 22.5 24.6819 21.9953 24.6819 21.375C24.6819 20.7547 25.1866 20.25 25.8069 20.25C26.4272 20.25 26.9319 20.7547 26.9319 21.375C26.9319 21.9953 26.4272 22.5 25.8069 22.5Z" fill="white"/>
<path d="M8.30688 12.5C6.99732 12.5 5.93188 13.5654 5.93188 14.875C5.93188 16.1846 6.99732 17.25 8.30688 17.25C9.61645 17.25 10.6819 16.1846 10.6819 14.875C10.6819 13.5654 9.61645 12.5 8.30688 12.5ZM8.30688 16C7.68657 16 7.18188 15.4953 7.18188 14.875C7.18188 14.2547 7.68657 13.75 8.30688 13.75C8.9272 13.75 9.43188 14.2547 9.43188 14.875C9.43188 15.4953 8.9272 16 8.30688 16Z" fill="white"/>
<path d="M19.9736 12.5C18.6641 12.5 17.5986 13.5654 17.5986 14.875C17.5986 16.1846 18.6641 17.25 19.9736 17.25C21.2832 17.25 22.3486 16.1846 22.3486 14.875C22.3486 13.5654 21.2832 12.5 19.9736 12.5ZM19.9736 16C19.3533 16 18.8486 15.4953 18.8486 14.875C18.8486 14.2547 19.3533 13.75 19.9736 13.75C20.5939 13.75 21.0986 14.2547 21.0986 14.875C21.0986 15.4953 20.5939 16 19.9736 16Z" fill="white"/>
<path d="M25.8069 12.5C24.4973 12.5 23.4319 13.5654 23.4319 14.875C23.4319 16.1846 24.4973 17.25 25.8069 17.25C27.1164 17.25 28.1819 16.1846 28.1819 14.875C28.1819 13.5654 27.1164 12.5 25.8069 12.5ZM25.8069 16C25.1866 16 24.6819 15.4953 24.6819 14.875C24.6819 14.2547 25.1866 13.75 25.8069 13.75C26.4272 13.75 26.9319 14.2547 26.9319 14.875C26.9319 15.4953 26.4272 16 25.8069 16Z" fill="white"/>
<path d="M14.1401 12.5C12.8306 12.5 11.7651 13.5654 11.7651 14.875C11.7651 16.1846 12.8306 17.25 14.1401 17.25C15.4497 17.25 16.5151 16.1846 16.5151 14.875C16.5151 13.5654 15.4497 12.5 14.1401 12.5ZM14.1401 16C13.5198 16 13.0151 15.4953 13.0151 14.875C13.0151 14.2547 13.5198 13.75 14.1401 13.75C14.7604 13.75 15.2651 14.2547 15.2651 14.875C15.2651 15.4953 14.7604 16 14.1401 16Z" fill="white"/>
<path d="M7.88132 21.977C7.63719 21.7329 7.24157 21.7329 6.99738 21.977L4.96201 24.0124L4.26645 23.3169C4.02232 23.0728 3.6267 23.0728 3.38251 23.3169C3.13845 23.5609 3.13845 23.9567 3.38251 24.2008L4.52007 25.3382C4.63732 25.4554 4.79626 25.5213 4.96201 25.5213C5.12776 25.5213 5.28669 25.4554 5.40394 25.3382L7.88132 22.8609C8.12538 22.6168 8.12538 22.2211 7.88132 21.977Z" fill="white"/>
</svg>
