<svg width="20" height="20" viewBox="0 0 20 20" fill="none" xmlns="http://www.w3.org/2000/svg">
<path d="M16.2762 0H3.72412C3.40053 0 3.13818 0.262344 3.13818 0.585938V19.4141C3.13818 19.6511 3.28096 19.8647 3.4999 19.9554C3.5724 19.9854 3.64854 20 3.724 20C3.8765 20 4.02635 19.9405 4.13846 19.8284L10.0003 13.9666L15.8619 19.8284C16.0295 19.9959 16.2815 20.0461 16.5004 19.9554C16.7194 19.8647 16.8622 19.6511 16.8622 19.4141V0.585938C16.8622 0.262344 16.5998 0 16.2762 0ZM10.0003 12.552C9.84486 12.552 9.69584 12.6138 9.58596 12.7237L4.31006 17.9995V1.17188H15.6903V17.9994L10.4146 12.7237C10.3047 12.6138 10.1557 12.552 10.0003 12.552Z" fill="#1865AA"/>
</svg>
