<svg width="18" height="18" viewBox="0 0 18 18" fill="none" xmlns="http://www.w3.org/2000/svg">
<g clip-path="url(#clip0)">
<path d="M12.9655 0.111328H4.81227C2.15874 0.111328 0 2.27007 0 4.9236V13.0769C0 15.7303 2.15874 17.8891 4.81227 17.8891H12.9656C15.619 17.8891 17.7777 15.7303 17.7777 13.0769V4.9236C17.7777 2.27007 15.619 0.111328 12.9655 0.111328V0.111328ZM16.7355 13.0769C16.7355 15.1557 15.0443 16.8469 12.9655 16.8469H4.81227C2.73342 16.8469 1.04221 15.1557 1.04221 13.0769V4.9236C1.04221 2.84475 2.73342 1.15354 4.81227 1.15354H12.9656C15.0443 1.15354 16.7355 2.84475 16.7355 4.9236V13.0769Z" fill="#1865AA"/>
<path d="M8.88904 4.13916C6.20865 4.13916 4.02808 6.31974 4.02808 9.00013C4.02808 11.6805 6.20865 13.8611 8.88904 13.8611C11.5694 13.8611 13.75 11.6805 13.75 9.00013C13.75 6.31974 11.5694 4.13916 8.88904 4.13916ZM8.88904 12.8189C6.78347 12.8189 5.07028 11.1058 5.07028 9.00013C5.07028 6.89455 6.78347 5.18137 8.88904 5.18137C10.9948 5.18137 12.7078 6.89455 12.7078 9.00013C12.7078 11.1058 10.9948 12.8189 8.88904 12.8189Z" fill="#1865AA"/>
<path d="M13.866 2.41309C13.0739 2.41309 12.4297 3.05748 12.4297 3.84944C12.4297 4.64154 13.0739 5.28594 13.866 5.28594C14.6581 5.28594 15.3025 4.64154 15.3025 3.84944C15.3025 3.05734 14.6581 2.41309 13.866 2.41309ZM13.866 4.24359C13.6488 4.24359 13.4719 4.06673 13.4719 3.84944C13.4719 3.63202 13.6488 3.45529 13.866 3.45529C14.0835 3.45529 14.2603 3.63202 14.2603 3.84944C14.2603 4.06673 14.0835 4.24359 13.866 4.24359Z" fill="#1865AA"/>
</g>
<defs>
<clipPath id="clip0">
<rect width="17.7778" height="17.7778" fill="white" transform="translate(0 0.111328)"/>
</clipPath>
</defs>
</svg>
