<svg width="18" height="18" viewBox="0 0 18 18" fill="none" xmlns="http://www.w3.org/2000/svg">
<g clip-path="url(#clip0)">
<path d="M12.9655 0.111084H4.81227C2.15874 0.111084 0 2.26983 0 4.92336V13.0767C0 15.7301 2.15874 17.8888 4.81227 17.8888H12.9656C15.619 17.8888 17.7777 15.7301 17.7777 13.0767V4.92336C17.7777 2.26983 15.619 0.111084 12.9655 0.111084V0.111084ZM16.7355 13.0767C16.7355 15.1554 15.0443 16.8466 12.9655 16.8466H4.81227C2.73342 16.8466 1.04221 15.1554 1.04221 13.0767V4.92336C1.04221 2.8445 2.73342 1.15329 4.81227 1.15329H12.9656C15.0443 1.15329 16.7355 2.8445 16.7355 4.92336V13.0767Z" fill="white"/>
<path d="M8.8888 4.13892C6.20841 4.13892 4.02783 6.3195 4.02783 8.99988C4.02783 11.6803 6.20841 13.8609 8.8888 13.8609C11.5692 13.8609 13.7498 11.6803 13.7498 8.99988C13.7498 6.3195 11.5692 4.13892 8.8888 4.13892ZM8.8888 12.8186C6.78323 12.8186 5.07004 11.1056 5.07004 8.99988C5.07004 6.89431 6.78323 5.18112 8.8888 5.18112C10.9945 5.18112 12.7076 6.89431 12.7076 8.99988C12.7076 11.1056 10.9945 12.8186 8.8888 12.8186Z" fill="white"/>
<path d="M13.866 2.4126C13.0739 2.4126 12.4297 3.05699 12.4297 3.84896C12.4297 4.64105 13.0739 5.28545 13.866 5.28545C14.6581 5.28545 15.3025 4.64105 15.3025 3.84896C15.3025 3.05686 14.6581 2.4126 13.866 2.4126ZM13.866 4.24311C13.6488 4.24311 13.4719 4.06624 13.4719 3.84896C13.4719 3.63153 13.6488 3.4548 13.866 3.4548C14.0835 3.4548 14.2603 3.63153 14.2603 3.84896C14.2603 4.06624 14.0835 4.24311 13.866 4.24311Z" fill="white"/>
</g>
<defs>
<clipPath id="clip0">
<rect width="17.7778" height="17.7778" fill="white" transform="translate(0 0.111084)"/>
</clipPath>
</defs>
</svg>
