<svg width="32" height="32" viewBox="0 0 32 32" fill="none" xmlns="http://www.w3.org/2000/svg">
<g clip-path="url(#clip0)">
<path d="M29.9998 0H1.99998C0.89543 0 0 0.89543 0 1.99998V24.6665C0 25.771 0.89543 26.6665 1.99998 26.6665H17.9999V25.3332H1.99998C1.6318 25.3332 1.3333 25.0347 1.3333 24.6665V1.99998C1.3333 1.6318 1.6318 1.3333 1.99998 1.3333H29.9998C30.368 1.3333 30.6664 1.6318 30.6664 1.99998V24.6665C30.6664 25.0347 30.368 25.3332 29.9998 25.3332H28.6665V26.6665H29.9998C31.1043 26.6665 31.9998 25.771 31.9998 24.6665V1.99998C31.9998 0.89543 31.1043 0 29.9998 0Z" fill="white"/>
<path d="M28 6.6666C26.5273 6.6666 25.3333 5.47267 25.3333 3.99993C25.3333 3.63175 25.0348 3.33325 24.6666 3.33325H7.33353C6.96534 3.33325 6.66684 3.63175 6.66684 3.99993C6.66684 5.47267 5.47292 6.6666 4.00018 6.6666C3.63199 6.6666 3.3335 6.9651 3.3335 7.33328V19.3332C3.3335 19.7014 3.63199 19.9999 4.00018 19.9999C5.47292 19.9999 6.66684 21.1938 6.66684 22.6665C6.66684 23.0347 6.96534 23.3332 7.33353 23.3332H16.0001V21.9998H7.94483C7.65809 20.3224 6.34422 19.0086 4.66686 18.7218V7.94459C6.34422 7.65784 7.65809 6.34398 7.94483 4.66662H24.0554C24.3421 6.34398 25.656 7.65784 27.3334 7.94459V13.3332H28.6667V7.33328C28.6667 6.96504 28.3682 6.6666 28 6.6666Z" fill="white"/>
<path d="M23.3334 14C20.0198 14 17.3335 16.6863 17.3335 20C17.3335 23.3136 20.0198 25.9999 23.3334 25.9999C26.6455 25.9958 29.3293 23.312 29.3334 20C29.3334 16.6863 26.6471 14 23.3334 14ZM23.3334 24.6666C20.7562 24.6666 18.6668 22.5773 18.6668 20C18.6668 17.4227 20.7561 15.3333 23.3334 15.3333C25.9096 15.3362 27.9972 17.4238 28.0001 20C28 22.5772 25.9107 24.6666 23.3334 24.6666Z" fill="white"/>
<path d="M26.0001 24V29.946L23.7501 28.146C23.5065 27.951 23.1603 27.951 22.9168 28.146L20.6668 29.946V24H19.3335V31.3333C19.3334 31.4848 19.385 31.6319 19.4797 31.7502C19.7099 32.0376 20.1294 32.0841 20.4168 31.854L23.3335 29.5207L26.2501 31.854C26.3684 31.9485 26.5154 32 26.6668 31.9999C27.035 31.9999 27.3335 31.7015 27.3335 31.3333V24H26.0001Z" fill="white"/>
<path d="M22.6669 6.66675H9.33367C8.96549 6.66675 8.66699 6.96525 8.66699 7.33343V10C8.66699 10.3682 8.96549 10.6667 9.33367 10.6667H22.6669C23.0351 10.6667 23.3336 10.3682 23.3336 10V7.33337C23.3336 6.96518 23.0351 6.66675 22.6669 6.66675ZM22.0002 9.33335H10.0003V8.00005H22.0002V9.33335Z" fill="white"/>
<path d="M9.3333 12.6665H8V13.9998H9.3333V12.6665Z" fill="white"/>
<path d="M12.0003 12.6665H10.667V13.9998H12.0003V12.6665Z" fill="white"/>
<path d="M16 15.333H8V16.6663H16V15.333Z" fill="white"/>
<path d="M23.3333 16.6665C21.4924 16.6665 20 18.1589 20 19.9998C20 21.8407 21.4924 23.3331 23.3333 23.3331C25.1733 23.3309 26.6644 21.8398 26.6666 19.9998C26.6666 18.1589 25.1742 16.6665 23.3333 16.6665ZM23.3333 21.9998C22.2287 21.9998 21.3333 21.1043 21.3333 19.9998C21.3333 18.8952 22.2287 17.9998 23.3333 17.9998C24.4378 17.9998 25.3333 18.8952 25.3333 19.9998C25.3333 21.1043 24.4378 21.9998 23.3333 21.9998Z" fill="white"/>
<path d="M4.6668 22H3.3335V23.3333H4.6668V22Z" fill="white"/>
<path d="M28.6668 3.33325H27.3335V4.66655H28.6668V3.33325Z" fill="white"/>
<path d="M4.6668 3.33325H3.3335V4.66655H4.6668V3.33325Z" fill="white"/>
</g>
<defs>
<clipPath id="clip0">
<rect width="32" height="32" fill="white"/>
</clipPath>
</defs>
</svg>
