<svg width="30" height="30" viewBox="0 0 30 30" fill="none" xmlns="http://www.w3.org/2000/svg">
<g opacity="0.5">
<path d="M15 30C23.2721 30 30 23.2721 30 15C30 6.72794 23.2721 0 15 0C6.72794 0 0 6.72794 0 15C0 23.2721 6.72794 30 15 30ZM15 1.21324C22.6042 1.21324 28.7868 7.39583 28.7868 15C28.7868 22.6042 22.6042 28.7868 15 28.7868C7.39583 28.7868 1.21324 22.6042 1.21324 15C1.21324 7.39583 7.39583 1.21324 15 1.21324Z" fill="#B0B0B0"/>
<path d="M12.8677 19.9816C12.9841 20.098 13.1434 20.1593 13.2966 20.1593C13.4498 20.1593 13.6091 20.098 13.7255 19.9816L18.2783 15.4289C18.3947 15.3125 18.4559 15.1593 18.4559 15C18.4559 14.8406 18.3947 14.6875 18.2783 14.571L13.7255 10.0183C13.4866 9.77937 13.1067 9.77937 12.8677 10.0183C12.6287 10.2573 12.6287 10.6372 12.8677 10.8762L16.9915 15L12.8677 19.1237C12.6349 19.3627 12.6349 19.7487 12.8677 19.9816Z" fill="#B0B0B0"/>
</g>
</svg>
