<svg width="32" height="32" viewBox="0 0 32 32" fill="none" xmlns="http://www.w3.org/2000/svg">
<g clip-path="url(#clip0)">
<path d="M13.5695 17.5468L10.5561 20.5602C10.312 20.8043 10.312 21.2 10.5561 21.4441C10.6782 21.5662 10.8381 21.6272 10.998 21.6272C11.158 21.6272 11.318 21.5662 11.44 21.4441L14.4533 18.4308C14.6974 18.1867 14.6974 17.791 14.4533 17.5468C14.2093 17.3027 13.8135 17.3028 13.5695 17.5468Z" fill="white"/>
<path d="M20.5575 10.5585L17.5468 13.5692C17.3028 13.8132 17.3028 14.209 17.5468 14.4531C17.6689 14.5752 17.8288 14.6362 17.9888 14.6362C18.1487 14.6362 18.3086 14.5752 18.4307 14.4531L21.4413 11.4425C21.6854 11.1984 21.6854 10.8027 21.4413 10.5585C21.1973 10.3145 20.8016 10.3145 20.5575 10.5585Z" fill="white"/>
<path d="M29.1926 21.5028C27.9964 20.8121 26.6192 20.5878 25.277 20.8582L20.4186 15.9997L25.2807 11.1377C25.6436 11.2098 26.0079 11.2448 26.3694 11.2448C28.3421 11.2447 30.2234 10.2006 31.245 8.43122C32.1815 6.80927 32.2498 4.83456 31.4277 3.14892C31.155 2.58979 30.8025 2.29879 30.3799 2.28404C29.9641 2.26998 29.6056 2.52054 29.3116 3.02986L28.3429 4.70781C28.1778 4.99363 28.0931 4.99369 27.9528 4.99369H27.2341C26.7858 4.99369 26.7088 4.94919 26.4846 4.56094L26.1253 3.93862C26.0527 3.81293 26.0127 3.74362 26.1778 3.45786L27.1465 1.77991C27.4406 1.27053 27.4782 0.833775 27.2583 0.481834C27.0342 0.123268 26.6063 -0.0366088 25.9854 0.00682908C24.1146 0.137705 22.4387 1.18415 21.5022 2.80617C20.8115 4.00249 20.5872 5.37982 20.8577 6.72183L15.9992 11.5803L11.1372 6.71821C11.6025 4.37481 10.5244 1.9626 8.4308 0.753836C6.80866 -0.182548 4.83395 -0.250861 3.14831 0.571272C2.58924 0.843962 2.29824 1.19647 2.28349 1.61903C2.26899 2.03379 2.51993 2.39323 3.02931 2.68729L4.7072 3.65605C4.99308 3.82112 4.99308 3.90105 4.99308 4.04612V4.76481C4.99308 5.21313 4.94858 5.29019 4.56032 5.51432L3.93794 5.87364C3.81225 5.9462 3.743 5.9862 3.45719 5.8212L1.77923 4.85244C1.26985 4.55831 0.833098 4.52075 0.481158 4.74062C0.122592 4.96469 -0.0372225 5.39294 0.00615291 6.01351C0.137029 7.88434 1.18348 9.56036 2.80549 10.4968C4.00182 11.1875 5.37902 11.4118 6.72116 11.1414L11.5796 15.9998L6.71753 20.8618C4.37432 20.3966 1.96198 21.4746 0.75316 23.5682C-0.183286 25.1902 -0.2516 27.1648 0.570533 28.8505C0.843224 29.4096 1.19573 29.7006 1.61829 29.7154C2.03355 29.7304 2.39249 29.4789 2.68662 28.9695L3.65538 27.2917C3.82044 27.0058 3.90038 27.0058 4.0455 27.0058H4.76414C5.21239 27.0058 5.28945 27.0503 5.51364 27.4385L5.8729 28.0609C5.94546 28.1866 5.98546 28.2559 5.82046 28.5416L4.8517 30.2196C4.55757 30.7289 4.52001 31.1657 4.73995 31.5176C4.94008 31.8379 5.30295 31.9996 5.82027 31.9996C5.88221 31.9996 5.94646 31.9973 6.01277 31.9926C7.88361 31.8618 9.55962 30.8153 10.496 29.1934C11.1867 27.997 11.4111 26.6197 11.1406 25.2777L15.999 20.4193L20.861 25.2814C20.3959 27.6248 21.4739 30.037 23.5675 31.2458C24.4364 31.7474 25.4062 31.9999 26.3788 31.9999C27.2219 31.9998 28.0671 31.8101 28.8497 31.4284C29.4088 31.1557 29.6998 30.8032 29.7146 30.3806C29.7291 29.9659 29.4782 29.6064 28.9687 29.3123L27.2908 28.3436C27.005 28.1785 27.005 28.0986 27.005 27.9535V27.2348C27.005 26.7865 27.0495 26.7095 27.4377 26.4853L28.0601 26.126C28.1857 26.0534 28.2549 26.0135 28.5408 26.1785L30.2188 27.1472C30.7281 27.4413 31.1648 27.4789 31.5169 27.259C31.8754 27.0349 32.0353 26.6067 31.9918 25.9861C31.8611 24.1152 30.8146 22.4392 29.1926 21.5028ZM7.35929 10.0116C7.20122 9.85361 6.97072 9.79199 6.75491 9.85005C5.62477 10.1542 4.44413 9.99943 3.43062 9.4143C2.18899 8.69741 1.38098 7.42303 1.25867 5.9952L2.83231 6.90377C3.22331 7.12952 3.82807 7.38059 4.56307 6.95621L5.18545 6.59689C5.95646 6.1517 6.24315 5.6552 6.24315 4.76488V4.04612C6.24309 3.19748 5.72327 2.79923 5.33227 2.57348L3.75863 1.66503C5.05633 1.05696 6.56409 1.11959 7.80567 1.83647C9.51725 2.82473 10.3564 4.84663 9.84612 6.75346C9.78844 6.96908 9.85006 7.19915 10.0079 7.35696L15.1152 12.4642L14.2314 13.348L11.4418 10.5584C11.1977 10.3144 10.8019 10.3144 10.5578 10.5584C10.3137 10.8025 10.3138 11.1983 10.5578 11.4424L13.3474 14.232L12.4635 15.1159L7.35929 10.0116ZM10.0109 24.6396C9.85287 24.7976 9.79125 25.0281 9.84937 25.244C10.1535 26.3742 9.99875 27.5547 9.41356 28.5683C8.69674 29.8099 7.42241 30.6179 5.99452 30.7403L6.9031 29.1666C7.12878 28.7756 7.37979 28.1708 6.95553 27.4358L6.59622 26.8135C6.15103 26.0425 5.65458 25.7558 4.76426 25.7558H4.0455C3.19693 25.7558 2.79862 26.2756 2.5728 26.6666L1.66429 28.2402C1.05629 26.9425 1.11891 25.4348 1.83573 24.1933C2.82399 22.4816 4.84583 21.6424 6.75272 22.1528C6.96835 22.2104 7.19841 22.1489 7.35622 21.991L21.9872 7.35996C22.1453 7.2019 22.2069 6.97146 22.1488 6.75558C21.8447 5.62538 21.9994 4.44481 22.5846 3.4313C23.3015 2.18966 24.5759 1.38165 26.0037 1.25934L25.0951 2.83292C24.8694 3.22392 24.6183 3.82868 25.0426 4.56369L25.402 5.18607C25.8472 5.95714 26.3437 6.24376 27.234 6.24376H27.9527C28.8014 6.2437 29.1996 5.72389 29.4254 5.33294L30.3339 3.7593C30.942 5.057 30.8793 6.56464 30.1624 7.80628C29.1743 9.51792 27.1522 10.3569 25.2455 9.84674C25.0298 9.78905 24.7998 9.85074 24.642 10.0086L10.0109 24.6396ZM29.1659 25.0958C28.7748 24.8701 28.1699 24.6192 27.4352 25.0434L26.8128 25.4027C26.0418 25.8478 25.7551 26.3443 25.7551 27.2346V27.9534C25.7551 28.802 26.2749 29.2002 26.6659 29.4261L28.2396 30.3346C26.9419 30.9426 25.4342 30.88 24.1926 30.1631C22.4809 29.1749 21.6419 27.1529 22.1521 25.2461C22.2098 25.0305 22.1482 24.8004 21.9903 24.6426L16.883 19.5353L17.767 18.6514L20.5595 21.444C20.6815 21.566 20.8415 21.627 21.0014 21.627C21.1614 21.627 21.3213 21.566 21.4434 21.444C21.6874 21.1999 21.6874 20.8042 21.4434 20.5601L18.6508 17.7675L19.5347 16.8837L24.6389 21.9879C24.7969 22.1459 25.0273 22.2075 25.2433 22.1495C26.3732 21.8453 27.554 22.0001 28.5676 22.5853C29.8092 23.3022 30.6173 24.5765 30.7395 26.0043L29.1659 25.0958Z" fill="white"/>
<path d="M16.0002 15.375H15.9997C15.6546 15.375 15.375 15.6548 15.375 16C15.375 16.3452 15.655 16.625 16.0002 16.625C16.3454 16.625 16.6252 16.3452 16.6252 16C16.6252 15.6548 16.3454 15.375 16.0002 15.375Z" fill="white"/>
</g>
<defs>
<clipPath id="clip0">
<rect width="32" height="32" fill="white"/>
</clipPath>
</defs>
</svg>
