<svg width="24" height="24" viewBox="0 0 24 24" fill="none" xmlns="http://www.w3.org/2000/svg">
<path d="M22.9915 8.47064C22.9916 6.21661 22.1082 4.09186 20.504 2.48767C18.8998 0.883484 16.775 0 14.5208 0H9.50189C9.50171 0 9.50171 0 9.50171 0C7.24786 0 5.12292 0.883484 3.51892 2.48749C1.91473 4.09186 1.03125 6.21661 1.03125 8.47064V12.4158C1.03125 14.1616 1.56372 15.8406 2.57117 17.272C3.45996 18.5347 4.65527 19.5211 6.04889 20.1464V22.4125C6.04889 23.5842 6.70496 24 7.26672 24C7.66809 24 8.06946 23.8019 8.46021 23.4113L10.9849 20.8867L14.521 20.8865C16.775 20.8865 18.8998 20.003 20.504 18.399C22.1082 16.7948 22.9916 14.6699 22.9916 12.4158L22.9915 8.47064ZM14.521 19.4802L10.6937 19.4804C10.5071 19.4804 10.3284 19.5544 10.1966 19.6862L7.46594 22.4169C7.46246 22.4205 7.4588 22.424 7.45514 22.4275C7.45514 22.4225 7.45514 22.4174 7.45514 22.4125V19.6771C7.45514 19.3854 7.27515 19.1241 7.00269 19.0201C4.27222 17.9782 2.43768 15.3241 2.43768 12.4158V8.47064C2.43768 6.59216 3.17487 4.82043 4.51337 3.48175C5.85187 2.14343 7.62341 1.40625 9.50189 1.40625H14.5208C16.3993 1.40625 18.171 2.14343 19.5095 3.48193C20.8482 4.82062 21.5854 6.59235 21.5852 8.47064L21.5854 12.4158C21.5852 16.3112 18.4162 19.4802 14.521 19.4802Z" fill="#B0B0B0"/>
<path d="M13.8813 11.5002C13.6069 11.2255 13.1617 11.2255 12.8871 11.5002L12.3191 12.068L10.1182 9.86725L10.6861 9.29944C10.818 9.1676 10.8921 8.98871 10.8921 8.80212C10.8921 8.61572 10.818 8.43683 10.6861 8.30499L8.02343 5.64227C7.89159 5.51044 7.71288 5.43628 7.5263 5.43628C7.3399 5.43628 7.161 5.51044 7.02917 5.64227L5.16515 7.50629C4.15716 8.51428 4.15716 10.1547 5.16534 11.1633L11.0231 17.0214C11.5101 17.5082 12.1596 17.7763 12.8516 17.7763C13.5437 17.7763 14.1932 17.5082 14.6802 17.0214L16.5442 15.1575C16.6761 15.0255 16.7502 14.8468 16.7502 14.6602C16.7502 14.4738 16.6761 14.2949 16.5442 14.1631L13.8813 11.5002ZM13.6858 16.0267C13.4644 16.2481 13.1681 16.3701 12.8516 16.3701C12.535 16.3701 12.2387 16.2481 12.0173 16.0267L6.15978 10.1688C5.69982 9.70886 5.69964 8.96033 6.1596 8.50055L7.5263 7.13367L9.19457 8.80212L8.62658 9.36993C8.49474 9.50177 8.42059 9.68066 8.42059 9.86707C8.42059 10.0536 8.49474 10.2324 8.62658 10.3644L11.8218 13.5596C12.0964 13.834 12.5416 13.8342 12.8162 13.5596L13.3842 12.9918L15.0525 14.66L13.6858 16.0267Z" fill="#B0B0B0"/>
<path d="M12.1821 3.11035C11.7938 3.11035 11.479 3.42511 11.479 3.81348C11.479 4.20166 11.7938 4.5166 12.1821 4.5166C13.7913 4.5166 15.3043 5.14319 16.4421 6.28119C17.5801 7.41901 18.2067 8.93182 18.2067 10.5411C18.2067 10.9293 18.5214 11.2443 18.9098 11.2443C19.298 11.2443 19.6129 10.9295 19.6129 10.5411C19.6129 8.55627 18.84 6.69025 17.4365 5.28674C16.033 3.88324 14.167 3.11035 12.1821 3.11035Z" fill="#B0B0B0"/>
<path d="M15.1942 10.541C15.1942 10.9291 15.5092 11.2441 15.8973 11.2441C16.2857 11.2441 16.6005 10.9291 16.6005 10.541C16.6005 8.10474 14.6183 6.1228 12.1821 6.1228C11.7938 6.1228 11.479 6.43756 11.479 6.82593C11.479 7.21429 11.7938 7.52905 12.1821 7.52905C13.8431 7.52905 15.1942 8.88019 15.1942 10.541Z" fill="#B0B0B0"/>
</svg>
