<svg width="20" height="20" viewBox="0 0 20 20" fill="none" xmlns="http://www.w3.org/2000/svg">
<g clip-path="url(#clip0)">
<path d="M10.1208 16.25C13.0142 16.25 11.9825 14.4183 12.2058 13.8917C12.2025 13.4983 12.1992 13.12 12.2125 12.89C12.3958 12.9417 12.8283 13.1608 13.7217 14.0292C15.1008 15.4208 15.4533 16.25 16.5675 16.25H18.6183C19.2683 16.25 19.6067 15.9808 19.7758 15.755C19.9392 15.5367 20.0992 15.1533 19.9242 14.5567C19.4667 13.12 16.7983 10.6392 16.6325 10.3775C16.6575 10.3292 16.6975 10.265 16.7183 10.2317H16.7167C17.2433 9.53583 19.2533 6.52417 19.5492 5.31917C19.55 5.3175 19.5508 5.315 19.5508 5.3125C19.7108 4.7625 19.5642 4.40583 19.4125 4.20417C19.1842 3.9025 18.8208 3.75 18.33 3.75H16.2792C15.5925 3.75 15.0717 4.09583 14.8083 4.72667C14.3675 5.8475 13.1292 8.1525 12.2008 8.96833C12.1725 7.8125 12.1917 6.93 12.2067 6.27417C12.2367 4.995 12.3333 3.75 11.0058 3.75H7.7825C6.95083 3.75 6.155 4.65833 7.01667 5.73667C7.77 6.68167 7.2875 7.20833 7.45 9.83C6.81667 9.15083 5.69 7.31667 4.89333 4.9725C4.67 4.33833 4.33167 3.75083 3.37917 3.75083H1.32833C0.496667 3.75083 0 4.20417 0 4.96333C0 6.66833 3.77417 16.25 10.1208 16.25ZM3.37917 5.00083C3.56 5.00083 3.57833 5.00083 3.7125 5.38167C4.52833 7.78417 6.35833 11.3392 7.695 11.3392C8.69917 11.3392 8.69917 10.31 8.69917 9.9225L8.69833 6.8375C8.64333 5.81667 8.27167 5.30833 8.0275 5L10.9508 5.00333C10.9525 5.0175 10.9342 8.41583 10.9592 9.23917C10.9592 10.4083 11.8875 11.0783 13.3367 9.61167C14.8658 7.88583 15.9233 5.30583 15.9658 5.20083C16.0283 5.05083 16.0825 5 16.2792 5H18.33H18.3383C18.3375 5.0025 18.3375 5.005 18.3367 5.0075C18.1492 5.8825 16.2983 8.67083 15.6792 9.53667C15.6692 9.55 15.66 9.56417 15.6508 9.57833C15.3783 10.0233 15.1567 10.515 15.6883 11.2067H15.6892C15.7375 11.265 15.8633 11.4017 16.0467 11.5917C16.6167 12.18 18.5717 14.1917 18.745 14.9917C18.63 15.01 18.505 14.9967 16.5675 15.0008C16.155 15.0008 15.8325 14.3842 14.6017 13.1425C13.495 12.0658 12.7767 11.6258 12.1225 11.6258C10.8525 11.6258 10.945 12.6567 10.9567 13.9033C10.9608 15.255 10.9525 14.8275 10.9617 14.9125C10.8875 14.9417 10.675 15 10.1208 15C4.83333 15 1.39 6.6075 1.2575 5.00333C1.30333 4.99917 1.93417 5.00167 3.37917 5.00083Z" fill="white"/>
</g>
<defs>
<clipPath id="clip0">
<rect width="20" height="20" fill="white"/>
</clipPath>
</defs>
</svg>
