<svg width="24" height="24" viewBox="0 0 24 24" fill="none" xmlns="http://www.w3.org/2000/svg">
<g clip-path="url(#clip0)">
<path d="M20.5911 3.40887C18.3928 1.21051 15.4706 0 12.3615 0C12.3613 0 12.3605 0 12.3604 0C10.8226 0.000183105 9.3241 0.297913 7.90668 0.885132C6.48908 1.47235 5.21906 2.32141 4.13159 3.40887C1.93341 5.60706 0.722903 8.52979 0.722903 11.6385C0.722903 13.4925 1.17023 15.3349 2.01782 16.9764L0.0615262 22.5652C-0.0763522 22.9594 0.021243 23.3879 0.316775 23.6832C0.523501 23.8901 0.795596 24 1.07538 24C1.19532 24 1.31653 23.9799 1.43482 23.9385L7.02356 21.9824C8.6651 22.83 10.5075 23.2773 12.3615 23.2773C15.4702 23.2773 18.3928 22.0666 20.5911 19.8684C22.7893 17.6702 24 14.7475 24 11.6387C24 8.52979 22.7895 5.60706 20.5911 3.40887ZM19.5958 18.873C17.6635 20.8055 15.0941 21.8696 12.3615 21.8696C10.6897 21.8696 9.02893 21.4561 7.5586 20.6735C7.292 20.5318 6.97687 20.5074 6.69397 20.6065L1.61646 22.3835L3.39368 17.306C3.49274 17.0228 3.4682 16.7076 3.32648 16.4412C2.54407 14.9713 2.13043 13.3105 2.13043 11.6385C2.13043 8.90588 3.19464 6.33655 5.12696 4.40424C7.05908 2.47211 9.62805 1.4079 12.3605 1.40753H12.3615C15.0943 1.40753 17.6635 2.47174 19.5958 4.40424C21.5283 6.33655 22.5925 8.9057 22.5925 11.6385C22.5925 14.3714 21.5283 16.9407 19.5958 18.873Z" fill="#B0B0B0"/>
<path d="M16.6866 12.6783C16.1512 12.1429 15.28 12.1429 14.7446 12.6783L14.159 13.2639C12.705 12.4716 11.5283 11.2949 10.7358 9.84088L11.3214 9.25531C11.857 8.71991 11.857 7.84869 11.3214 7.31329L9.74341 5.73529C9.20801 5.19989 8.3368 5.19989 7.8014 5.73529L6.53907 6.99762C5.81598 7.7207 5.77991 8.96381 6.43744 10.498C7.00837 11.8301 8.05317 13.2943 9.3794 14.6205C10.7056 15.9467 12.1697 16.9915 13.5018 17.5624C14.2308 17.8748 14.8938 18.0306 15.4667 18.0306C16.0997 18.0306 16.6227 17.8404 17.0023 17.4608L18.2646 16.1983V16.1985C18.5241 15.939 18.6669 15.5942 18.6669 15.2275C18.6669 14.8605 18.5241 14.5157 18.2646 14.2565L16.6866 12.6783ZM16.0069 16.4655C15.8005 16.6718 15.1659 16.7441 14.0565 16.2688C12.885 15.7667 11.5774 14.8278 10.3748 13.6251C9.17212 12.4225 8.23334 11.1151 7.73127 9.9436C7.25574 8.83417 7.32807 8.19934 7.53443 7.99298L8.77259 6.75482L10.3019 8.2843L9.56891 9.01746C9.23749 9.34888 9.15748 9.8515 9.37006 10.2682C10.3337 12.1579 11.842 13.6661 13.7316 14.6298C14.1486 14.8424 14.6512 14.7626 14.9826 14.431L15.7156 13.698L17.2451 15.2275L16.0069 16.4655Z" fill="#B0B0B0"/>
</g>
<defs>
<clipPath id="clip0">
<rect width="24" height="24" fill="white"/>
</clipPath>
</defs>
</svg>
