<svg width="50" height="44" viewBox="0 0 50 44" fill="none" xmlns="http://www.w3.org/2000/svg">
<circle opacity="0.3" cx="12" cy="32" r="12" fill="white"/>
<path d="M49.4059 19.003C49.734 19.003 50 18.737 50 18.409V15.0826C50 14.8737 49.8902 14.6801 49.7109 14.5728L46.3342 12.553C46.242 12.4979 46.1366 12.4688 46.0293 12.4688H45.4009C46.8885 11.3657 47.8548 9.59756 47.8548 7.60741C47.8548 4.27178 45.1411 1.55811 41.8055 1.55811C40.4952 1.55811 29.5202 4.82256 29.3424 4.86436C28.0977 5.15623 27.1681 6.27498 27.1681 7.60741C27.1681 8.95748 28.1227 10.0884 29.3922 10.3619V12.4687H24.2273V11.6118H24.8989C25.227 11.6118 25.493 11.3458 25.493 11.0177C25.493 10.6897 25.227 10.4237 24.8989 10.4237H24.2273V9.56686H24.8989C25.227 9.56686 25.493 9.30084 25.493 8.9728C25.493 8.64475 25.227 8.37873 24.8989 8.37873H24.2273V7.51467H24.8989C25.227 7.51467 25.493 7.24866 25.493 6.92061C25.493 6.59256 25.227 6.32655 24.8989 6.32655H24.2273V5.47694H24.8989C25.227 5.47694 25.493 5.21092 25.493 4.88287C25.493 4.55483 25.227 4.28881 24.8989 4.28881H24.2273V3.43936H24.8989C25.227 3.43936 25.493 3.17334 25.493 2.84529C25.493 2.51725 25.227 2.25123 24.8989 2.25123H23.6333H19.1187H17.8531C17.5251 2.25123 17.2591 2.51725 17.2591 2.84529C17.2591 3.17334 17.5251 3.43936 17.8531 3.43936H18.5247V4.28889H17.8531C17.5251 4.28889 17.2591 4.5549 17.2591 4.88295C17.2591 5.211 17.5251 5.47701 17.8531 5.47701H18.5247V6.32662H17.8531C17.5251 6.32662 17.2591 6.59264 17.2591 6.92069C17.2591 7.24873 17.5251 7.51475 17.8531 7.51475H18.5247V8.37881H17.8531C17.5251 8.37881 17.2591 8.64483 17.2591 8.97288C17.2591 9.30092 17.5251 9.56694 17.8531 9.56694H18.5247V10.4237H17.8531C17.5251 10.4237 17.2591 10.6897 17.2591 11.0177C17.2591 11.3458 17.5251 11.6118 17.8531 11.6118H18.5247V12.4688H13.9708C13.8634 12.4688 13.758 12.498 13.6659 12.553L10.2891 14.5727C10.1098 14.6801 10 14.8737 10 15.0826V30.6462C10 30.8552 10.1098 31.0487 10.2891 31.156L13.6658 33.1758C13.758 33.2309 13.8634 33.26 13.9707 33.26H14.8552C15.1537 36.1667 17.6164 38.4416 20.6006 38.4416C23.5848 38.4416 26.0476 36.1667 26.3461 33.26H37.9389L38.6356 35.8897C39.0338 37.3922 40.3973 38.4416 41.9516 38.4416C43.2011 38.4416 44.2177 37.425 44.2177 36.1754V33.26H46.0292C46.1366 33.26 46.242 33.2309 46.3341 33.1758L49.7108 31.156C49.8901 31.0487 49.9999 30.8552 49.9999 30.6462V20.5474C49.9999 20.2194 49.7339 19.9534 49.4059 19.9534C49.0778 19.9534 48.8118 20.2194 48.8118 20.5474V30.3093L45.8651 32.0719H43.6313C43.6287 32.0719 43.6262 32.0715 43.6236 32.0715C43.621 32.0715 43.6185 32.0718 43.6159 32.0719H38.4216C38.42 32.0718 38.4183 32.072 38.4167 32.0719H26.3463C26.0482 29.1648 23.5852 26.8896 20.6007 26.8896C17.6162 26.8896 15.1533 29.1648 14.8551 32.0719H14.1348L11.1881 30.3093V15.4194L14.1348 13.6569H45.8652L48.812 15.4194V18.4089C48.8119 18.737 49.0779 19.003 49.4059 19.003ZM43.0297 33.2601V36.1755C43.0297 36.7698 42.5461 37.2535 41.9516 37.2535C40.9356 37.2535 40.0444 36.5676 39.7842 35.5855L39.168 33.2601H43.0297ZM20.6006 28.0777C23.1304 28.0777 25.1885 30.1358 25.1885 32.6655C25.1885 35.1953 23.1304 37.2534 20.6006 37.2534C18.0709 37.2534 16.0127 35.1954 16.0127 32.6655C16.0128 30.1359 18.0709 28.0777 20.6006 28.0777ZM23.0392 12.4685H19.7127V11.6117H23.0392V12.4685ZM23.0392 10.4236H19.7127V9.56678H23.0392V10.4236ZM23.0392 8.37873H19.7127V7.51467H23.0392V8.37873ZM23.0392 6.32655H19.7127V5.47694H23.0392V6.32655ZM23.0392 4.28889H19.7127V3.43936H23.0392V4.28889ZM28.3563 7.60733C28.3563 6.70897 29.0867 5.97819 29.9849 5.97741C29.9853 5.97741 29.9856 5.97748 29.9859 5.97748C29.9864 5.97748 29.9869 5.97741 29.9873 5.97741C30.8856 5.97803 31.6162 6.70889 31.6162 7.60733C31.6162 8.50608 30.8851 9.23733 29.9862 9.23733C29.0874 9.23733 28.3563 8.50623 28.3563 7.60733ZM30.5804 12.4687V10.623L36.925 12.4687H30.5804ZM31.8186 9.74592C32.4213 9.22866 32.8043 8.46217 32.8043 7.60756C32.8043 6.75295 32.4213 5.98623 31.8186 5.46904L36.9768 3.96842C36.2112 4.98178 35.7562 6.24233 35.7562 7.60748C35.7562 8.97264 36.2112 10.2332 36.9768 11.2465L31.8186 9.74592ZM41.8055 12.4685C39.1251 12.4685 36.9444 10.2878 36.9444 7.60733C36.9444 4.92686 39.1251 2.74615 41.8055 2.74615C44.486 2.74615 46.6667 4.92694 46.6667 7.60733C46.6667 10.2878 44.486 12.4685 41.8055 12.4685Z" fill="white"/>
<path d="M23.3277 30.8677C23.1468 30.5939 22.7782 30.5185 22.5046 30.6994C22.2308 30.8802 22.1555 31.2487 22.3363 31.5225C22.5603 31.8616 22.6787 32.2569 22.6787 32.6656C22.6787 33.8114 21.7465 34.7436 20.6006 34.7436C19.4548 34.7436 18.5226 33.8114 18.5226 32.6656C18.5226 31.5198 19.4548 30.5875 20.6006 30.5875C20.9287 30.5875 21.1947 30.3215 21.1947 29.9935C21.1947 29.6654 20.9287 29.3994 20.6006 29.3994C18.7997 29.3994 17.3345 30.8646 17.3345 32.6656C17.3345 34.4665 18.7996 35.9318 20.6006 35.9318C22.4015 35.9318 23.8667 34.4666 23.8667 32.6656C23.8667 32.0234 23.6803 31.4016 23.3277 30.8677Z" fill="white"/>
<path d="M41.8057 5.63672C40.719 5.63672 39.835 6.52078 39.835 7.60742C39.835 8.69406 40.719 9.57812 41.8057 9.57812C42.8923 9.57812 43.7764 8.69406 43.7764 7.60742C43.7764 6.52078 42.8923 5.63672 41.8057 5.63672ZM41.8057 8.38992C41.3741 8.38992 41.0231 8.03891 41.0231 7.60734C41.0231 7.17578 41.3741 6.82477 41.8057 6.82477C42.2372 6.82477 42.5882 7.17578 42.5882 7.60734C42.5882 8.03891 42.2372 8.38992 41.8057 8.38992Z" fill="white"/>
</svg>
