<svg width="47" height="47" viewBox="0 0 47 47" fill="none" xmlns="http://www.w3.org/2000/svg">
<circle opacity="0.3" cx="12" cy="12" r="12" fill="white"/>
<path d="M46.2187 31.9939H38.9744C38.7735 31.9939 38.5909 32.0704 38.4525 32.195L37.3072 31.3126C36.9078 31.0048 36.5902 30.6071 36.3736 30.1604C36.7107 29.4705 36.9887 28.7539 37.2028 28.0206L40.8021 27.4453C41.1811 27.3847 41.46 27.0577 41.46 26.6739V21.7864C41.46 21.4026 41.1811 21.0755 40.8021 21.015L37.203 20.4397C36.9292 19.4995 36.5543 18.594 36.0841 17.7365L38.2217 14.7855C38.4469 14.4746 38.4129 14.0462 38.1415 13.7747L34.6855 10.3187C34.4141 10.0473 33.9857 10.0133 33.6748 10.2384L30.7237 12.3761C29.8664 11.9059 28.9608 11.5311 28.0206 11.2573L27.4453 7.65805C27.3846 7.27891 27.0577 7 26.6739 7H21.7864C21.4026 7 21.0755 7.27891 21.015 7.65797L20.4397 11.2571C19.4994 11.5309 18.5939 11.9058 17.7365 12.3759L14.7853 10.2383C14.4745 10.0131 14.0461 10.0471 13.7746 10.3186L10.3185 13.7745C10.0471 14.046 10.013 14.4744 10.2383 14.7853L12.3759 17.7364C11.9058 18.5937 11.5309 19.4994 11.2571 20.4395L7.65789 21.0148C7.27891 21.0754 7 21.4024 7 21.7863V26.6738C7 27.0577 7.27891 27.3846 7.65789 27.4452L11.2571 28.0205C11.5309 28.9607 11.9058 29.8663 12.3759 30.7237L10.2383 33.6748C10.0131 33.9857 10.0471 34.4141 10.3185 34.6856L13.7745 38.1415C14.046 38.4129 14.4744 38.4469 14.7852 38.2217L17.7363 36.0841C18.5937 36.5543 19.4993 36.9292 20.4395 37.203L20.8792 39.9538C20.8305 40.1547 20.804 40.3642 20.804 40.5799C20.804 41.313 21.102 41.9778 21.5833 42.4595C21.1021 42.9413 20.804 43.6061 20.804 44.3391C20.804 45.8063 21.9977 47 23.4649 47H34.417C35.4543 47 36.4813 46.6555 37.3089 46.0299L38.2212 45.3403C38.3113 45.6721 38.6139 45.9165 38.9743 45.9165H46.2187C46.6502 45.9165 46.9999 45.5667 46.9999 45.1352V32.7752C46.9999 32.3437 46.6502 31.9939 46.2187 31.9939ZM21.4973 35.0316C21.4879 35.042 21.479 35.0528 21.4697 35.0634C21.4514 35.0841 21.433 35.1048 21.4154 35.126C21.4046 35.1391 21.3943 35.1525 21.3838 35.1658C21.3684 35.1852 21.3528 35.2044 21.3379 35.2242C21.3269 35.2388 21.3166 35.2537 21.306 35.2685C21.2922 35.2876 21.2783 35.3067 21.265 35.3262C21.2545 35.3415 21.2446 35.3572 21.2345 35.3728C21.2218 35.3924 21.209 35.4118 21.1967 35.4317C21.1868 35.4477 21.1776 35.464 21.1681 35.4801C21.1564 35.5002 21.1446 35.5202 21.1333 35.5406C21.1242 35.5572 21.1155 35.5741 21.1067 35.591C21.096 35.6114 21.0853 35.6318 21.0751 35.6525C21.0667 35.6697 21.0586 35.6872 21.0506 35.7046C21.0441 35.7186 21.0372 35.7324 21.0309 35.7465C19.9967 35.4604 19.0083 35.0367 18.089 34.4852C17.8205 34.3242 17.4821 34.3389 17.2287 34.5224L14.4083 36.5655L11.8946 34.0518L13.9376 31.2314C14.1212 30.9779 14.1358 30.6395 13.9749 30.3711C13.372 29.3662 12.9219 28.2789 12.6373 27.1394C12.5614 26.8358 12.3117 26.6068 12.0026 26.5574L8.5625 26.0075V22.4525L12.0026 21.9026C12.3116 21.8533 12.5613 21.6242 12.6372 21.3206C12.9219 20.1811 13.3719 19.0938 13.9748 18.0889C14.1358 17.8205 14.1212 17.4821 13.9376 17.2287L11.8946 14.4083L14.4083 11.8945L17.2287 13.9376C17.482 14.1211 17.8204 14.1358 18.0888 13.9748C19.0938 13.3719 20.1811 12.9219 21.3206 12.6372C21.6242 12.5613 21.8533 12.3116 21.9026 12.0026L22.4526 8.5625H26.0075L26.5575 12.0026C26.6068 12.3116 26.8359 12.5613 27.1395 12.6372C28.2789 12.9219 29.3663 13.3719 30.3712 13.9748C30.6396 14.1358 30.978 14.1212 31.2314 13.9376L34.0519 11.8945L36.5656 14.4082L34.5225 17.2287C34.3389 17.4821 34.3243 17.8205 34.4853 18.0889C35.0882 19.0939 35.5382 20.1811 35.823 21.3206C35.8989 21.6242 36.1486 21.8533 36.4576 21.9026L39.8976 22.4525V26.0075L36.4576 26.5573C36.3005 26.5824 36.1588 26.6539 36.0474 26.758V24.0249C36.0474 23.1829 35.6054 22.4428 34.9417 22.0227C34.5117 19.9258 33.4862 18.0182 31.9641 16.496C27.6996 12.2314 20.7607 12.2314 16.4962 16.496C14.7965 18.1957 13.7245 20.3494 13.3962 22.7245C13.0786 25.0217 13.5085 27.4043 14.6067 29.4335C14.7481 29.6948 15.0169 29.8431 15.2944 29.8431C15.42 29.8431 15.5474 29.8127 15.6656 29.7488C16.0451 29.5435 16.1862 29.0693 15.9808 28.6899C14.0231 25.0725 14.6894 20.5126 17.601 17.6009C21.2562 13.9455 27.2039 13.9455 30.8592 17.6009C32.0035 18.7452 32.82 20.1434 33.2525 21.6817C33.2367 21.6835 33.221 21.6857 33.2053 21.6877C33.1942 21.6891 33.1832 21.6904 33.1722 21.6919C32.6803 21.7587 32.2185 21.9211 31.806 22.16C31.4484 20.8504 30.7546 19.6461 29.7843 18.6758C28.3008 17.192 26.3282 16.375 24.23 16.375C22.1318 16.375 20.1594 17.192 18.6757 18.6757C15.613 21.7383 15.613 26.7217 18.6757 29.7844C19.434 30.5428 20.322 31.1282 21.297 31.5189C21.2888 31.5305 21.2817 31.5428 21.2736 31.5546C21.2516 31.5864 21.2304 31.6189 21.2098 31.6518C21.1948 31.6759 21.1801 31.7001 21.1659 31.7246C21.145 31.7605 21.1248 31.7969 21.1055 31.8339C21.0964 31.8514 21.0872 31.8689 21.0784 31.8867C21.0539 31.9364 21.0307 31.9867 21.0092 32.0381C21.0042 32.0501 20.9997 32.0625 20.9947 32.0746C20.9758 32.1217 20.9583 32.1694 20.9421 32.2178C20.9383 32.2293 20.9341 32.2407 20.9304 32.2522C20.9122 32.3089 20.8961 32.3666 20.8817 32.4249C20.8788 32.4366 20.8762 32.4483 20.8736 32.4601C20.8608 32.5153 20.8495 32.571 20.8402 32.6274C20.8391 32.6338 20.8378 32.64 20.8368 32.6465C20.8272 32.7071 20.8202 32.7685 20.8149 32.8303C20.8137 32.8442 20.8127 32.858 20.8117 32.8719C20.8072 32.9346 20.8042 32.9977 20.8042 33.0615C20.8042 33.7946 21.1022 34.4594 21.5834 34.9411C21.554 34.9706 21.5253 35.0008 21.4973 35.0316ZM19.7806 28.6796C17.3272 26.2261 17.3272 22.234 19.7806 19.7806C22.2341 17.3272 26.2261 17.3272 28.6796 19.7806C29.6724 20.7734 30.3033 22.0723 30.4737 23.462C30.1281 24.0295 29.9288 24.6954 29.9288 25.4071V26.8943C29.6186 27.5586 29.1998 28.1592 28.6795 28.6796C27.7939 29.5652 26.6807 30.1589 25.457 30.4007H23.465C23.3505 30.4007 23.2379 30.4089 23.1272 30.4229C21.8537 30.1978 20.6983 29.5973 19.7806 28.6796ZM29.9288 29.6362V30.4007H29.0918C29.3332 30.21 29.5645 30.0043 29.7845 29.7843C29.8332 29.7356 29.8814 29.6861 29.9288 29.6362ZM38.1931 43.4027L36.3667 44.7834C35.8089 45.2052 35.1164 45.4374 34.4171 45.4374H23.465C22.8593 45.4374 22.3667 44.9447 22.3667 44.3391C22.3667 43.7344 22.8578 43.2425 23.4621 43.2409H25.2477C25.6792 43.2409 26.0289 42.8911 26.0289 42.4596C26.0289 42.0281 25.6792 41.6784 25.2477 41.6784H23.4681C23.4671 41.6784 23.4661 41.6782 23.465 41.6782C22.8593 41.6782 22.3667 41.1855 22.3667 40.5799C22.3667 40.4285 22.3975 40.2842 22.4531 40.1528C22.4532 40.1527 22.4533 40.1525 22.4533 40.1524C22.4668 40.1206 22.4818 40.0896 22.4982 40.0594C22.4995 40.0569 22.501 40.0545 22.5023 40.052C22.5184 40.0227 22.5357 39.9941 22.5543 39.9665C22.5544 39.9663 22.5546 39.9661 22.5547 39.966C22.6925 39.7624 22.8966 39.6074 23.1358 39.532C23.1398 39.5308 23.1439 39.5298 23.1479 39.5286C23.1752 39.5203 23.2029 39.5133 23.2311 39.5072C23.2404 39.5052 23.2497 39.5033 23.2591 39.5016C23.2835 39.497 23.3082 39.4933 23.3331 39.4902C23.3429 39.4891 23.3525 39.4877 23.3623 39.4867C23.3961 39.4836 23.4304 39.4815 23.465 39.4815H25.2477C25.6792 39.4815 26.0289 39.1317 26.0289 38.7003C26.0289 38.2688 25.6792 37.919 25.2477 37.919H23.465C22.8594 37.919 22.3667 37.4263 22.3667 36.8206C22.3667 36.215 22.8594 35.7223 23.465 35.7223C23.4661 35.7223 23.4671 35.7221 23.4681 35.7221H25.2477C25.6792 35.7221 26.0289 35.3724 26.0289 34.9409C26.0289 34.5094 25.6792 34.1596 25.2477 34.1596H23.4621C22.8579 34.158 22.3667 33.666 22.3667 33.0614C22.3667 33.0258 22.3687 32.9907 22.372 32.9558C22.3731 32.9441 22.3751 32.9327 22.3766 32.9211C22.3796 32.8982 22.3827 32.8752 22.3871 32.8527C22.3896 32.8396 22.3928 32.8267 22.3958 32.8138C22.4007 32.7929 22.4058 32.7722 22.4118 32.7518C22.4154 32.7392 22.4195 32.7268 22.4236 32.7144C22.4306 32.6936 22.4381 32.6731 22.4462 32.6528C22.4506 32.6419 22.455 32.631 22.4597 32.6203C22.4696 32.5981 22.4801 32.5763 22.4914 32.5548C22.4955 32.5468 22.4994 32.5389 22.5038 32.531C22.5186 32.5042 22.5344 32.4781 22.5514 32.4528C22.5528 32.4507 22.554 32.4485 22.5554 32.4464C22.6334 32.3314 22.7327 32.2319 22.8475 32.1535C22.8512 32.151 22.855 32.1487 22.8586 32.1463C22.8827 32.1303 22.9074 32.1153 22.9327 32.1012C22.9395 32.0975 22.9464 32.0938 22.9533 32.0901C22.9755 32.0784 22.9983 32.0675 23.0214 32.0573C23.0313 32.0529 23.0412 32.0485 23.0513 32.0444C23.0713 32.0362 23.0918 32.029 23.1124 32.022C23.1257 32.0175 23.1388 32.0128 23.1523 32.0089C23.1696 32.0037 23.1872 31.9996 23.2048 31.9953C23.2217 31.9913 23.2384 31.9867 23.2556 31.9835C23.3234 31.9703 23.3933 31.9629 23.465 31.9629H25.536H30.71C31.1414 31.9629 31.4912 31.6132 31.4912 31.1817V27.0663V25.407C31.4912 24.9194 31.6517 24.4686 31.9224 24.1045C31.9331 24.09 31.9443 24.0761 31.9554 24.0619C31.9776 24.0335 32.0005 24.0057 32.0241 23.9784C32.0378 23.9625 32.0514 23.9465 32.0656 23.9311C32.0777 23.9179 32.0902 23.9052 32.1026 23.8923C32.1186 23.8757 32.1346 23.8592 32.1511 23.8432C32.162 23.8325 32.173 23.8222 32.1841 23.8118C32.205 23.7922 32.2264 23.7729 32.248 23.7543C32.2553 23.748 32.2624 23.7416 32.2697 23.7354C32.5618 23.4897 32.9142 23.323 33.2903 23.2544C33.2921 23.2541 33.2939 23.2538 33.2956 23.2535C33.3328 23.2468 33.3704 23.2413 33.4082 23.2365C33.4147 23.2358 33.4212 23.2348 33.4278 23.234C33.4615 23.23 33.4954 23.2272 33.5294 23.2248C33.538 23.2242 33.5465 23.2233 33.5551 23.2229C33.5963 23.2205 33.6377 23.2191 33.6792 23.2191C34.1235 23.2191 34.4849 23.5806 34.4849 24.0249V28.7514C34.4849 28.8368 34.4879 28.9219 34.4924 29.0068C34.4934 29.025 34.4948 29.0432 34.496 29.0614C34.5008 29.1367 34.5074 29.2118 34.5158 29.2866C34.5167 29.2946 34.5175 29.3027 34.5185 29.3107C34.5621 29.6828 34.6482 30.0486 34.7782 30.4032C34.7874 30.4282 34.7992 30.4514 34.8106 30.4749C35.1246 31.286 35.6539 32.0112 36.3535 32.5502L38.1931 33.9676V43.4027H38.1931ZM45.4374 44.3539H43.3777V38.2724C43.3777 37.8409 43.028 37.4911 42.5965 37.4911C42.165 37.4911 41.8152 37.8409 41.8152 38.2724V44.3539H39.7556V43.7916V33.5834V33.5564H45.4374V44.3539Z" fill="white"/>
<path d="M43.3623 35.339C43.3522 35.2898 43.3373 35.2405 43.3178 35.1929C43.2982 35.146 43.274 35.1007 43.2459 35.0585C43.2178 35.0155 43.185 34.9757 43.149 34.9397C43.1131 34.9038 43.0725 34.871 43.0303 34.8421C42.9873 34.814 42.942 34.7897 42.8951 34.7702C42.8482 34.7507 42.799 34.7358 42.749 34.7257C42.6482 34.7054 42.5443 34.7054 42.4436 34.7257C42.3936 34.7358 42.3443 34.7507 42.2975 34.7702C42.2506 34.7897 42.2053 34.814 42.1623 34.8421C42.1201 34.871 42.0803 34.9038 42.0436 34.9397C42.0075 34.9757 41.9756 35.0155 41.9467 35.0585C41.9186 35.1007 41.8943 35.146 41.8748 35.1929C41.8553 35.2405 41.8404 35.2898 41.8303 35.339C41.8201 35.3898 41.8154 35.4413 41.8154 35.4921C41.8154 35.5429 41.8201 35.5944 41.8303 35.6444C41.8404 35.6944 41.8553 35.7437 41.8748 35.7905C41.8943 35.8382 41.9186 35.8835 41.9467 35.9257C41.9756 35.9687 42.0076 36.0085 42.0436 36.0444C42.0803 36.0804 42.1201 36.1132 42.1623 36.1413C42.2053 36.1695 42.2506 36.1937 42.2975 36.2132C42.3443 36.2327 42.3936 36.2476 42.4436 36.2577C42.4943 36.2679 42.5451 36.2734 42.5967 36.2734C42.6475 36.2734 42.699 36.2679 42.749 36.2577C42.799 36.2476 42.8482 36.2327 42.8951 36.2132C42.942 36.1937 42.9873 36.1695 43.0303 36.1413C43.0725 36.1132 43.1131 36.0804 43.149 36.0444C43.185 36.0085 43.2178 35.9687 43.2459 35.9257C43.274 35.8835 43.2982 35.8382 43.3178 35.7905C43.3373 35.7437 43.3522 35.6944 43.3623 35.6444C43.3725 35.5944 43.3779 35.5429 43.3779 35.4921C43.378 35.4413 43.3725 35.3898 43.3623 35.339Z" fill="white"/>
<path d="M17.5272 30.7843C17.3815 30.6342 17.1816 30.5486 16.9723 30.547C16.7605 30.5433 16.5618 30.6278 16.4138 30.7757C16.1098 31.0797 16.1107 31.5744 16.4131 31.88C16.566 32.0345 16.7675 32.1119 16.9693 32.1119C17.1664 32.1119 17.3638 32.0378 17.5156 31.889C17.8227 31.5882 17.8265 31.093 17.5272 30.7843Z" fill="white"/>
<path d="M24.2301 19.2446C21.4811 19.2446 19.2446 21.4811 19.2446 24.2301C19.2446 26.9791 21.4811 29.2155 24.2301 29.2155C26.9791 29.2155 29.2155 26.9791 29.2155 24.2301C29.2155 21.4811 26.9791 19.2446 24.2301 19.2446ZM24.2301 27.653C22.3427 27.653 20.8071 26.1174 20.8071 24.2301C20.8071 22.3427 22.3427 20.8071 24.2301 20.8071C26.1175 20.8071 27.653 22.3427 27.653 24.2301C27.653 26.1175 26.1175 27.653 24.2301 27.653Z" fill="white"/>
<path d="M25.3348 24.2299L25.7872 23.7775C26.0924 23.4724 26.0924 22.9778 25.7873 22.6726C25.4823 22.3676 24.9876 22.3676 24.6824 22.6726L24.23 23.125L23.7776 22.6726C23.4725 22.3676 22.9778 22.3676 22.6727 22.6726C22.3676 22.9777 22.3676 23.4724 22.6727 23.7775L23.1251 24.2299L22.6727 24.6824C22.3676 24.9874 22.3676 25.4821 22.6727 25.7873C22.8252 25.9399 23.0252 26.0161 23.2251 26.0161C23.425 26.0161 23.625 25.9399 23.7775 25.7873L24.2299 25.3349L24.6823 25.7873C24.8349 25.9399 25.0348 26.0161 25.2348 26.0161C25.4347 26.0161 25.6347 25.9399 25.7872 25.7873C26.0923 25.4822 26.0923 24.9875 25.7872 24.6824L25.3348 24.2299Z" fill="white"/>
</svg>
