<svg width="48" height="49" viewBox="0 0 48 49" fill="none" xmlns="http://www.w3.org/2000/svg">
<circle opacity="0.3" cx="12" cy="12" r="12" fill="white"/>
<g clip-path="url(#clip0)">
<path d="M45.4997 9H10.5C9.11929 9 8 10.1193 8 11.5V39.8331C8 41.2138 9.11929 42.3331 10.5 42.3331H30.4998V40.6665H10.5C10.0397 40.6665 9.66663 40.2933 9.66663 39.8331V11.5C9.66663 11.0397 10.0397 10.6666 10.5 10.6666H45.4997C45.9599 10.6666 46.3331 11.0397 46.3331 11.5V39.8331C46.3331 40.2933 45.9599 40.6665 45.4997 40.6665H43.8331V42.3331H45.4997C46.8804 42.3331 47.9997 41.2138 47.9997 39.8331V11.5C47.9997 10.1193 46.8804 9 45.4997 9Z" fill="white"/>
<path d="M43.0001 17.3332C41.1592 17.3332 39.6668 15.8408 39.6668 13.9999C39.6668 13.5396 39.2937 13.1665 38.8334 13.1665H17.167C16.7068 13.1665 16.3337 13.5396 16.3337 13.9999C16.3337 15.8408 14.8413 17.3332 13.0003 17.3332C12.5401 17.3332 12.167 17.7063 12.167 18.1665V33.1664C12.167 33.6267 12.5401 33.9998 13.0003 33.9998C14.8413 33.9998 16.3337 35.4922 16.3337 37.3331C16.3337 37.7933 16.7068 38.1665 17.167 38.1665H28.0003V36.4997H17.9312C17.5727 34.403 15.9304 32.7606 13.8337 32.4022V18.9307C15.9304 18.5722 17.5727 16.9299 17.9312 14.8332H38.0694C38.4278 16.9299 40.0701 18.5722 42.1668 18.9307V25.6665H43.8335V18.1665C43.8335 17.7062 43.4603 17.3332 43.0001 17.3332Z" fill="white"/>
<path d="M37.1669 26.5C33.0249 26.5 29.667 29.8579 29.667 33.9999C29.667 38.142 33.0249 41.4999 37.1669 41.4999C41.307 41.4948 44.6618 38.14 44.6669 33.9999C44.6669 29.8579 41.309 26.5 37.1669 26.5ZM37.1669 39.8333C33.9453 39.8333 31.3336 37.2216 31.3336 33.9999C31.3336 30.7783 33.9452 28.1666 37.1669 28.1666C40.3871 28.1703 42.9966 30.7798 43.0002 33.9999C43.0002 37.2216 40.3886 39.8333 37.1669 39.8333Z" fill="white"/>
<path d="M40.5002 39V46.4325L37.6877 44.1825C37.3833 43.9387 36.9505 43.9387 36.6461 44.1825L33.8336 46.4325V39H32.167V48.1666C32.1669 48.356 32.2314 48.5399 32.3498 48.6878C32.6375 49.047 33.1619 49.1051 33.5211 48.8174L37.167 45.9008L40.8128 48.8174C40.9606 48.9356 41.1443 49 41.3336 48.9999C41.7939 48.9999 42.167 48.6268 42.167 48.1666V39H40.5002Z" fill="white"/>
<path d="M36.3334 17.3335H19.6668C19.2066 17.3335 18.8335 17.7066 18.8335 18.1668V21.5001C18.8335 21.9603 19.2066 22.3335 19.6668 22.3335H36.3334C36.7936 22.3335 37.1667 21.9603 37.1667 21.5001V18.1668C37.1667 17.7065 36.7936 17.3335 36.3334 17.3335ZM35.5 20.6667H20.5001V19.0001H35.5V20.6667Z" fill="white"/>
<path d="M19.6666 24.833H18V26.4996H19.6666V24.833Z" fill="white"/>
<path d="M23.0001 24.833H21.3335V26.4996H23.0001V24.833Z" fill="white"/>
<path d="M27.9999 28.1665H18V29.8331H27.9999V28.1665Z" fill="white"/>
<path d="M37.1666 29.833C34.8655 29.833 33 31.6985 33 33.9996C33 36.3008 34.8655 38.1662 37.1666 38.1662C39.4667 38.1635 41.3305 36.2996 41.3332 33.9996C41.3332 31.6985 39.4678 29.833 37.1666 29.833ZM37.1666 36.4996C35.7859 36.4996 34.6666 35.3803 34.6666 33.9996C34.6666 32.6189 35.7859 31.4996 37.1666 31.4996C38.5473 31.4996 39.6666 32.6189 39.6666 33.9996C39.6666 35.3803 38.5473 36.4996 37.1666 36.4996Z" fill="white"/>
<path d="M13.8336 36.5H12.167V38.1666H13.8336V36.5Z" fill="white"/>
<path d="M43.8331 13.1665H42.1665V14.8331H43.8331V13.1665Z" fill="white"/>
<path d="M13.8336 13.1665H12.167V14.8331H13.8336V13.1665Z" fill="white"/>
</g>
<defs>
<clipPath id="clip0">
<rect width="40" height="40" fill="white" transform="translate(8 9)"/>
</clipPath>
</defs>
</svg>
