<svg width="65" height="53" viewBox="0 0 65 53" fill="none" xmlns="http://www.w3.org/2000/svg">
<path d="M7.96508 12.215C8.27774 12.215 8.53441 12.18 8.73508 12.11C8.93575 12.04 9.09208 11.9467 9.20408 11.83C9.32074 11.7087 9.40008 11.5733 9.44208 11.424C9.48408 11.2747 9.50508 11.1183 9.50508 10.955C9.50508 10.7683 9.48408 10.5957 9.44208 10.437C9.40008 10.2783 9.32074 10.143 9.20408 10.031C9.09208 9.91433 8.93575 9.82567 8.73508 9.765C8.53441 9.69967 8.27774 9.667 7.96508 9.667H6.59308V12.215H7.96508ZM7.96508 7.882C8.66974 7.882 9.26708 7.959 9.75708 8.113C10.2517 8.267 10.6531 8.47467 10.9611 8.736C11.2691 8.99267 11.4931 9.29367 11.6331 9.639C11.7731 9.97967 11.8431 10.339 11.8431 10.717C11.8431 11.207 11.7544 11.655 11.5771 12.061C11.4044 12.4623 11.1524 12.8077 10.8211 13.097C10.4897 13.3817 10.0837 13.6033 9.60308 13.762C9.12241 13.9207 8.57641 14 7.96508 14H4.22708V3.801H11.4511V5.572H6.59308V7.882H7.96508ZM23.5985 8.897C23.5985 9.63433 23.4702 10.3203 23.2135 10.955C22.9615 11.5897 22.6045 12.1427 22.1425 12.614C21.6805 13.0807 21.1228 13.447 20.4695 13.713C19.8208 13.979 19.0998 14.112 18.3065 14.112C17.5132 14.112 16.7898 13.979 16.1365 13.713C15.4832 13.447 14.9232 13.0807 14.4565 12.614C13.9945 12.1427 13.6352 11.5897 13.3785 10.955C13.1265 10.3203 13.0005 9.63433 13.0005 8.897C13.0005 8.15967 13.1265 7.47367 13.3785 6.839C13.6352 6.20433 13.9945 5.65367 14.4565 5.187C14.9232 4.72033 15.4832 4.354 16.1365 4.088C16.7898 3.822 17.5132 3.689 18.3065 3.689C19.0998 3.689 19.8208 3.82433 20.4695 4.095C21.1228 4.361 21.6805 4.72733 22.1425 5.194C22.6045 5.66067 22.9615 6.21133 23.2135 6.846C23.4702 7.48067 23.5985 8.16433 23.5985 8.897ZM21.1765 8.897C21.1765 8.393 21.1112 7.94033 20.9805 7.539C20.8498 7.133 20.6608 6.79 20.4135 6.51C20.1708 6.23 19.8722 6.01533 19.5175 5.866C19.1628 5.71667 18.7592 5.642 18.3065 5.642C17.8492 5.642 17.4408 5.71667 17.0815 5.866C16.7268 6.01533 16.4258 6.23 16.1785 6.51C15.9358 6.79 15.7492 7.133 15.6185 7.539C15.4878 7.94033 15.4225 8.393 15.4225 8.897C15.4225 9.40567 15.4878 9.863 15.6185 10.269C15.7492 10.6703 15.9358 11.011 16.1785 11.291C16.4258 11.571 16.7268 11.7857 17.0815 11.935C17.4408 12.0797 17.8492 12.152 18.3065 12.152C18.7592 12.152 19.1628 12.0797 19.5175 11.935C19.8722 11.7857 20.1708 11.571 20.4135 11.291C20.6608 11.011 20.8498 10.6703 20.9805 10.269C21.1112 9.863 21.1765 9.40567 21.1765 8.897ZM33.8788 14H31.4988V5.558H29.2448C29.1748 6.80867 29.0768 7.889 28.9508 8.799C28.8248 9.70433 28.6731 10.4743 28.4958 11.109C28.3184 11.7437 28.1178 12.257 27.8938 12.649C27.6698 13.041 27.4248 13.3467 27.1588 13.566C26.8928 13.7807 26.6058 13.9253 26.2978 14C25.9944 14.0747 25.6748 14.112 25.3388 14.112C24.9281 14.112 24.6364 14.0747 24.4638 14C24.2911 13.93 24.2047 13.825 24.2047 13.685V12.25H24.7928C24.8954 12.25 25.0028 12.2407 25.1148 12.222C25.2268 12.2033 25.3411 12.1543 25.4578 12.075C25.5744 11.9957 25.6888 11.879 25.8008 11.725C25.9174 11.571 26.0271 11.3563 26.1298 11.081C26.2371 10.8057 26.3374 10.4627 26.4308 10.052C26.5288 9.64133 26.6151 9.14433 26.6898 8.561C26.7691 7.973 26.8368 7.287 26.8928 6.503C26.9488 5.719 26.9884 4.81833 27.0118 3.801H33.8788V14ZM38.6561 5.621V8.001H41.8621V9.751H38.6561V12.18H42.8421V14H36.2761V3.801H42.8421V5.621H38.6561ZM47.1015 5.621V8.001H50.3075V9.751H47.1015V12.18H51.2875V14H44.7215V3.801H51.2875V5.621H47.1015Z" fill="white"/>
<circle opacity="0.3" cx="53" cy="41" r="12" fill="white"/>
<path d="M16.2615 38.64V42H3.81148V38.64H8.01149V27.615C8.01149 27.335 8.01649 27.055 8.02649 26.775C8.03649 26.485 8.05148 26.195 8.07148 25.905L5.58149 27.975C5.36148 28.145 5.14148 28.25 4.92149 28.29C4.71149 28.32 4.51149 28.32 4.32149 28.29C4.13149 28.25 3.96148 28.185 3.81148 28.095C3.66148 27.995 3.55148 27.895 3.48148 27.795L2.01148 25.845L8.82148 20.13H12.6615V38.64H16.2615ZM29.2238 33.51V27.81C29.2238 27.46 29.2338 27.085 29.2538 26.685C29.2838 26.275 29.3238 25.85 29.3738 25.41L23.5988 33.51H29.2238ZM35.5238 33.51V36.12C35.5238 36.35 35.4438 36.55 35.2838 36.72C35.1338 36.89 34.9138 36.975 34.6238 36.975H33.2738V42H29.2238V36.975H20.4338C20.1438 36.975 19.8788 36.885 19.6388 36.705C19.4088 36.525 19.2638 36.3 19.2038 36.03L18.7238 33.735L28.8338 20.145H33.2738V33.51H35.5238ZM43.7612 27.84C44.1712 27.76 44.5662 27.705 44.9462 27.675C45.3262 27.645 45.6962 27.63 46.0562 27.63C47.2062 27.63 48.2212 27.805 49.1012 28.155C49.9812 28.505 50.7212 28.985 51.3212 29.595C51.9212 30.195 52.3712 30.905 52.6712 31.725C52.9812 32.535 53.1362 33.405 53.1362 34.335C53.1362 35.505 52.9262 36.575 52.5062 37.545C52.0962 38.505 51.5212 39.335 50.7812 40.035C50.0412 40.735 49.1562 41.28 48.1262 41.67C47.1062 42.05 45.9862 42.24 44.7662 42.24C44.0562 42.24 43.3762 42.165 42.7262 42.015C42.0862 41.865 41.4812 41.665 40.9112 41.415C40.3512 41.155 39.8312 40.86 39.3512 40.53C38.8712 40.19 38.4362 39.83 38.0462 39.45L39.4862 37.53C39.6362 37.33 39.8112 37.18 40.0112 37.08C40.2112 36.97 40.4262 36.915 40.6562 36.915C40.9562 36.915 41.2362 37 41.4962 37.17C41.7662 37.33 42.0562 37.51 42.3662 37.71C42.6862 37.9 43.0562 38.075 43.4762 38.235C43.8962 38.395 44.4162 38.475 45.0362 38.475C45.6562 38.475 46.1862 38.375 46.6262 38.175C47.0662 37.965 47.4212 37.685 47.6912 37.335C47.9712 36.975 48.1712 36.56 48.2912 36.09C48.4212 35.61 48.4862 35.1 48.4862 34.56C48.4862 33.5 48.1862 32.695 47.5862 32.145C46.9862 31.585 46.1362 31.305 45.0362 31.305C44.0562 31.305 43.0962 31.49 42.1562 31.86L39.2762 31.08L41.1362 20.145H52.3262V22.065C52.3262 22.385 52.2762 22.675 52.1762 22.935C52.0762 23.195 51.9162 23.425 51.6962 23.625C51.4862 23.815 51.2062 23.965 50.8562 24.075C50.5062 24.175 50.0862 24.225 49.5962 24.225H44.3762L43.7612 27.84Z" fill="white"/>
</svg>
