<?xml version="1.0" encoding="UTF-8"?>
<!DOCTYPE svg PUBLIC "-//W3C//DTD SVG 1.1//EN" "http://www.w3.org/Graphics/SVG/1.1/DTD/svg11.dtd">
<!-- Creator: CorelDRAW 2019 (64-Bit) -->
<svg xmlns="http://www.w3.org/2000/svg" xml:space="preserve" width="16.6519mm" height="15.1147mm" version="1.1" style="shape-rendering:geometricPrecision; text-rendering:geometricPrecision; image-rendering:optimizeQuality; fill-rule:evenodd; clip-rule:evenodd"
viewBox="0 0 64.38 58.44"
 xmlns:xlink="http://www.w3.org/1999/xlink"
 xmlns:xodm="http://www.corel.com/coreldraw/odm/2003">
 <defs>
  <style type="text/css">
   <![CDATA[
    .fil1 {fill:black}
    .fil0 {fill:#1865AA}
   ]]>
  </style>
 </defs>
 <g id="Слой_x0020_1">
  <metadata id="CorelCorpID_0Corel-Layer"/>
  <g id="_2911670228656">
   <circle class="fil0" cx="47.66" cy="16.8" r="16.72"/>
   <g>
    <g>
     <path class="fil1" d="M3.62 32.62l-1.6 1.11c-0.32,0.22 -0.4,0.66 -0.18,0.98 0.13,0.19 0.35,0.3 0.58,0.3 0.14,0 0.28,-0.04 0.4,-0.13l1.6 -1.11c0.32,-0.22 0.4,-0.66 0.18,-0.98 -0.22,-0.32 -0.66,-0.4 -0.98,-0.18z"/>
    </g>
    <g>
     <path class="fil1" d="M4.43 24.09l-1.6 -1.11c-0.32,-0.22 -0.76,-0.14 -0.98,0.18 -0.22,0.32 -0.14,0.76 0.18,0.98l1.6 1.11c0.12,0.08 0.26,0.13 0.4,0.13 0.23,0 0.45,-0.11 0.58,-0.3 0.22,-0.32 0.14,-0.76 -0.18,-0.98z"/>
    </g>
    <g>
     <path class="fil1" d="M3.36 28.94c0,-0.39 -0.32,-0.71 -0.71,-0.71l-1.95 0c-0.39,0 -0.71,0.32 -0.71,0.71 0,0.39 0.32,0.71 0.71,0.71l1.95 0c0.39,0 0.71,-0.32 0.71,-0.71z"/>
    </g>
    <g>
     <path class="fil1" d="M41.45 28.59c0,-0.39 -0.32,-0.71 -0.71,-0.71l-5.74 0c-0.39,0 -0.71,0.32 -0.71,0.71 0,0.39 0.32,0.71 0.71,0.71l5.74 0c0.39,0 0.71,-0.32 0.71,-0.71z"/>
    </g>
    <g>
     <path class="fil1" d="M32.14 27.89l-1.15 0c-0.39,0 -0.71,0.32 -0.71,0.71 0,0.39 0.32,0.71 0.71,0.71l1.15 0c0.39,0 0.71,-0.32 0.71,-0.71 0,-0.39 -0.32,-0.71 -0.71,-0.71z"/>
    </g>
    <g>
     <path class="fil1" d="M27.21 26.73l-2.28 -0.27c-0.29,-0.03 -0.59,0.06 -0.81,0.26 -0.24,0.21 -0.37,0.52 -0.37,0.83l0 2.08c0,0.32 0.13,0.62 0.37,0.83 0.19,0.17 0.43,0.26 0.69,0.26 0.04,0 0.08,-0 0.12,-0.01l2.28 -0.27c0.55,-0.06 0.94,-0.55 0.94,-1.09l0 -1.55c0,-0.54 -0.39,-1.03 -0.94,-1.09zm-0.47 2.37l-1.57 0.18 0 -1.37 1.57 0.18 0 1z"/>
    </g>
    <g>
     <path class="fil1" d="M48.69 26.51l-1.48 0 -0.01 -0.14c-0.1,-1.07 -1.01,-1.9 -2.09,-1.9l-0.18 0c-0.54,0 -1.06,0.21 -1.45,0.58l-0.05 0.05 -3.33 -0.2 -0.98 -5.35 0.08 -0.06c1.04,-0.7 1.89,-1.63 2.52,-2.72l2.93 -5.14 0.07 -0.02c0.02,-0.01 0.05,-0.01 0.07,-0.02 0.58,-0.16 1.06,-0.53 1.36,-1.05l0.28 -0.49c0.3,-0.52 0.37,-1.13 0.21,-1.71 -0.16,-0.58 -0.53,-1.06 -1.05,-1.36l-11.76 -6.7c-1.07,-0.61 -2.45,-0.23 -3.06,0.84l-0.28 0.49c-0.3,0.52 -0.37,1.13 -0.21,1.71 0.02,0.06 0.04,0.13 0.06,0.19l0.02 0.07 -2.89 5.07c-1.08,1.9 -1.36,4.12 -0.78,6.23 0.38,1.39 1.12,2.65 2.14,3.67l0.08 0.07 -2.37 5.45 -4.63 -0.28 -0.04 -0.06c-0.43,-0.59 -1.11,-0.95 -1.85,-0.95l-0.21 0c-0.93,0 -1.76,0.56 -2.11,1.41l-0.03 0.08 -3.09 0.65c-0.64,0.14 -1.1,0.71 -1.1,1.36l0 0.43 -5.99 0.27c-0.71,0.03 -1.27,0.62 -1.27,1.33l0 1.22c0,0.71 0.56,1.3 1.27,1.33l5.99 0.27 0 0.43c0,0.65 0.46,1.23 1.1,1.36l3.09 0.65 0.03 0.08c0.35,0.85 1.18,1.41 2.11,1.41l0.2 0c0.97,0 1.83,-0.61 2.15,-1.52l0.03 -0.1 4.03 -0.24 0 8.1 -2.99 5.03c-0.6,1.01 -0.26,2.33 0.75,2.93 0.33,0.2 0.7,0.3 1.09,0.3 0.18,0 0.36,-0.02 0.53,-0.07 0.55,-0.14 1.02,-0.49 1.31,-0.98l3.29 -5.54c0.2,-0.33 0.3,-0.71 0.3,-1.09l0 -3.84c0,-0.39 -0.32,-0.71 -0.71,-0.71 -0.39,0 -0.71,0.32 -0.71,0.71l0 3.84c0,0.13 -0.04,0.26 -0.1,0.37l-3.29 5.54c-0.1,0.17 -0.26,0.29 -0.45,0.33 -0.19,0.05 -0.38,0.02 -0.55,-0.08 -0.17,-0.1 -0.29,-0.26 -0.33,-0.45 -0.05,-0.19 -0.02,-0.39 0.08,-0.55l3.09 -5.2c0.06,-0.11 0.1,-0.23 0.1,-0.36l0 -8.37 1.46 -0.09 0 1.57c0,0.39 0.32,0.71 0.71,0.71 0.39,0 0.71,-0.32 0.71,-0.71l0 -1.66 3.8 -0.23 0 15.43c0,0.48 0.28,0.91 0.71,1.11l0.09 0.04 0 1.19c0,0.67 0.48,1.25 1.14,1.38l0.12 0.02 0 0.47c0,0.94 0.77,1.71 1.71,1.71l7.03 0c0.81,0 1.47,0.66 1.47,1.47 0,0.81 -0.66,1.47 -1.47,1.47l-32.01 0c-0.39,0 -0.71,0.32 -0.71,0.71 0,0.39 0.32,0.71 0.71,0.71l32.01 0c1.59,0 2.89,-1.29 2.89,-2.89 0,-1.59 -1.29,-2.89 -2.89,-2.89l-7.03 0c-0.17,0 -0.3,-0.13 -0.3,-0.3l0 -0.47 0.12 -0.02c0.66,-0.13 1.14,-0.71 1.14,-1.38l0 -1.26 0.07 -0.05c0.3,-0.19 0.5,-0.51 0.55,-0.86l2.42 -16.06 1.34 -0.08 0.05 0.05c0.39,0.37 0.91,0.58 1.45,0.58l0.18 0c1.08,0 1.99,-0.82 2.09,-1.9l0.01 -0.14 1.48 0c0.82,0 1.49,-0.67 1.49,-1.49l0 -1.28c0,-0.82 -0.67,-1.49 -1.49,-1.49zm-16.98 -24.18l0.28 -0.49c0.23,-0.4 0.74,-0.54 1.14,-0.31l11.76 6.7c0.19,0.11 0.33,0.29 0.39,0.5 0.06,0.21 0.03,0.44 -0.08,0.63l-0.28 0.49c-0.11,0.19 -0.29,0.33 -0.5,0.39 -0.21,0.06 -0.44,0.03 -0.63,-0.08l-11.76 -6.7c-0.19,-0.11 -0.33,-0.29 -0.39,-0.5 -0.06,-0.21 -0.03,-0.44 0.08,-0.63zm-0.36 2.38l11.8 6.72 -1.49 2.62 -1.94 -0.91c-0.77,-0.36 -1.68,-0.39 -2.48,-0.08l-0.22 0.09c-0.4,0.16 -0.84,0.16 -1.24,0.01l-1.96 -0.73c-0.7,-0.26 -1.47,-0.27 -2.17,-0.02 -0.35,0.12 -0.74,0.13 -1.09,0.03l-2.66 -0.81 0.03 -0.14c0.14,-0.74 0.4,-1.46 0.78,-2.12l2.65 -4.65zm-3.54 8.36l2.33 0.71c0.64,0.2 1.35,0.18 1.98,-0.05 0.39,-0.14 0.81,-0.13 1.2,0.01l1.96 0.73c0.73,0.27 1.53,0.27 2.25,-0.01l0.22 -0.09c0.44,-0.17 0.94,-0.15 1.37,0.05l1.84 0.86 -0.46 0.8c-1.85,3.25 -6.01,4.39 -9.26,2.54 -0.35,-0.2 -0.69,-0.44 -1.01,-0.7 -0.01,-0.01 -0.02,-0.02 -0.04,-0.03 -1.04,-0.88 -1.78,-2.05 -2.14,-3.37 -0.11,-0.4 -0.18,-0.81 -0.22,-1.22l-0.02 -0.23zm-20.19 16.41l0 -1.07 5.85 -0.26 0 1.59 -5.85 -0.26zm7.27 2.09l0 -5.25 2.64 -0.56 0 6.37 -2.64 -0.56zm6 1.24c0,0.48 -0.39,0.87 -0.87,0.87l-0.2 0c-0.48,0 -0.87,-0.39 -0.87,-0.87l0 -7.72c0,-0.48 0.39,-0.87 0.87,-0.87l0.2 0c0.48,0 0.87,0.39 0.87,0.87l0 7.72zm1.41 -7.56l10.44 0.63c0.39,0.02 0.72,-0.27 0.75,-0.66 0.02,-0.39 -0.27,-0.72 -0.66,-0.75l-4.79 -0.29 2.01 -4.63 0.15 0.1c0.11,0.07 0.22,0.14 0.34,0.2 1.24,0.7 2.62,1.07 4.04,1.07 1.05,0 2.09,-0.2 3.06,-0.59l0.18 -0.07 0.84 4.56 -2.38 -0.14c-0.39,-0.02 -0.72,0.27 -0.75,0.66 -0.02,0.39 0.27,0.72 0.66,0.75l6.65 0.4 0 4.32 -20.54 1.24 0 -6.8zm13.43 11.4l1.11 0 0 5.93 -1.11 0 0 -5.93zm1.92 13.85l-1.11 0 0 -1.11 1.11 0 0 1.11zm0.66 -2.52l-2.58 0 0 -3.98 1.04 0c0.82,0 1.48,-0.67 1.48,-1.48l0 -5.79c0,-0.82 -0.67,-1.48 -1.48,-1.48l-1.04 0 0 -2.59 4.93 -0.3 -2.36 15.62zm7.5 -17.26c0,0.38 -0.31,0.69 -0.69,0.69l-0.18 0c-0.38,0 -0.69,-0.31 -0.69,-0.69l0 -4.14c0,-0.38 0.31,-0.69 0.69,-0.69l0.18 0c0.38,0 0.69,0.31 0.69,0.69l0 4.14zm2.97 -1.35l-1.56 0 0 -1.44 1.56 0 0 1.44z"/>
    </g>
   </g>
  </g>
 </g>
</svg>
