<svg width="46" height="42" viewBox="0 0 46 42" fill="none" xmlns="http://www.w3.org/2000/svg">
<circle cx="34" cy="12" r="12" fill="#1865AA"/>
<path d="M39.4059 21.0033C39.734 21.0033 40 20.7373 40 20.4092V17.0829C40 16.8739 39.8902 16.6804 39.7109 16.573L36.3342 14.5533C36.242 14.4981 36.1366 14.4691 36.0293 14.4691H35.4009C36.8885 13.3659 37.8548 11.5978 37.8548 9.60765C37.8548 6.27202 35.1411 3.55835 31.8055 3.55835C30.4952 3.55835 19.5202 6.8228 19.3424 6.8646C18.0977 7.15648 17.1681 8.27523 17.1681 9.60765C17.1681 10.9577 18.1227 12.0887 19.3922 12.3622V14.469H14.2273V13.612H14.8989C15.227 13.612 15.493 13.346 15.493 13.018C15.493 12.6899 15.227 12.4239 14.8989 12.4239H14.2273V11.5671H14.8989C15.227 11.5671 15.493 11.3011 15.493 10.973C15.493 10.645 15.227 10.379 14.8989 10.379H14.2273V9.51492H14.8989C15.227 9.51492 15.493 9.2489 15.493 8.92085C15.493 8.59281 15.227 8.32679 14.8989 8.32679H14.2273V7.47718H14.8989C15.227 7.47718 15.493 7.21116 15.493 6.88312C15.493 6.55507 15.227 6.28905 14.8989 6.28905H14.2273V5.4396H14.8989C15.227 5.4396 15.493 5.17359 15.493 4.84554C15.493 4.51749 15.227 4.25148 14.8989 4.25148H13.6333H9.11867H7.85312C7.52508 4.25148 7.25906 4.51749 7.25906 4.84554C7.25906 5.17359 7.52508 5.4396 7.85312 5.4396H8.52469V6.28913H7.85312C7.52508 6.28913 7.25906 6.55515 7.25906 6.8832C7.25906 7.21124 7.52508 7.47726 7.85312 7.47726H8.52469V8.32687H7.85312C7.52508 8.32687 7.25906 8.59288 7.25906 8.92093C7.25906 9.24898 7.52508 9.51499 7.85312 9.51499H8.52469V10.3791H7.85312C7.52508 10.3791 7.25906 10.6451 7.25906 10.9731C7.25906 11.3012 7.52508 11.5672 7.85312 11.5672H8.52469V12.4239H7.85312C7.52508 12.4239 7.25906 12.6899 7.25906 13.018C7.25906 13.346 7.52508 13.612 7.85312 13.612H8.52469V14.4691H3.97078C3.86336 14.4691 3.75797 14.4982 3.66586 14.5533L0.289141 16.573C0.109766 16.6803 0 16.8739 0 17.0828V32.6464C0 32.8554 0.109766 33.0489 0.289141 33.1563L3.66578 35.176C3.75797 35.2312 3.86336 35.2602 3.9707 35.2602H4.85516C5.15367 38.167 7.61641 40.4418 10.6006 40.4418C13.5848 40.4418 16.0476 38.167 16.3461 35.2602H27.9389L28.6356 37.8899C29.0338 39.3924 30.3973 40.4418 31.9516 40.4418C33.2011 40.4418 34.2177 39.4252 34.2177 38.1756V35.2602H36.0292C36.1366 35.2602 36.242 35.2311 36.3341 35.176L39.7108 33.1563C39.8901 33.049 39.9999 32.8554 39.9999 32.6464V22.5477C39.9999 22.2196 39.7339 21.9536 39.4059 21.9536C39.0778 21.9536 38.8118 22.2196 38.8118 22.5477V32.3095L35.8651 34.0721H33.6313C33.6287 34.0721 33.6262 34.0717 33.6236 34.0717C33.621 34.0717 33.6185 34.072 33.6159 34.0721H28.4216C28.42 34.072 28.4183 34.0722 28.4167 34.0721H16.3463C16.0482 31.1651 13.5852 28.8898 10.6007 28.8898C7.61625 28.8898 5.15328 31.1651 4.85508 34.0721H4.13484L1.18813 32.3095V17.4197L4.13484 15.6571H35.8652L38.812 17.4197V20.4091C38.8119 20.7373 39.0779 21.0033 39.4059 21.0033ZM33.0297 35.2603V38.1757C33.0297 38.7701 32.5461 39.2538 31.9516 39.2538C30.9356 39.2538 30.0444 38.5678 29.7842 37.5857L29.168 35.2603H33.0297ZM10.6006 30.078C13.1304 30.078 15.1885 32.136 15.1885 34.6658C15.1885 37.1956 13.1304 39.2537 10.6006 39.2537C8.07086 39.2537 6.01273 37.1956 6.01273 34.6658C6.01281 32.1361 8.07094 30.078 10.6006 30.078ZM13.0392 14.4687H9.71273V13.6119H13.0392V14.4687ZM13.0392 12.4238H9.71273V11.567H13.0392V12.4238ZM13.0392 10.379H9.71273V9.51492H13.0392V10.379ZM13.0392 8.32679H9.71273V7.47718H13.0392V8.32679ZM13.0392 6.28913H9.71273V5.4396H13.0392V6.28913ZM18.3563 9.60757C18.3563 8.70921 19.0867 7.97843 19.9849 7.97765C19.9853 7.97765 19.9856 7.97773 19.9859 7.97773C19.9864 7.97773 19.9869 7.97765 19.9873 7.97765C20.8856 7.97827 21.6162 8.70913 21.6162 9.60757C21.6162 10.5063 20.8851 11.2376 19.9862 11.2376C19.0874 11.2376 18.3563 10.5065 18.3563 9.60757ZM20.5804 14.469V12.6232L26.925 14.469H20.5804ZM21.8186 11.7462C22.4213 11.2289 22.8043 10.4624 22.8043 9.60781C22.8043 8.7532 22.4213 7.98648 21.8186 7.46929L26.9768 5.96866C26.2112 6.98202 25.7562 8.24257 25.7562 9.60773C25.7562 10.9729 26.2112 12.2334 26.9768 13.2468L21.8186 11.7462ZM31.8055 14.4687C29.1251 14.4687 26.9444 12.288 26.9444 9.60757C26.9444 6.9271 29.1251 4.7464 31.8055 4.7464C34.486 4.7464 36.6667 6.92718 36.6667 9.60757C36.6667 12.288 34.486 14.4687 31.8055 14.4687Z" fill="black"/>
<path d="M13.3279 32.8679C13.1471 32.5941 12.7785 32.5187 12.5049 32.6997C12.231 32.8804 12.1557 33.249 12.3366 33.5227C12.5605 33.8618 12.6789 34.2572 12.6789 34.6658C12.6789 35.8117 11.7467 36.7439 10.6009 36.7439C9.45503 36.7439 8.52284 35.8117 8.52284 34.6658C8.52284 33.52 9.45503 32.5878 10.6009 32.5878C10.9289 32.5878 11.195 32.3218 11.195 31.9937C11.195 31.6657 10.9289 31.3997 10.6009 31.3997C8.79995 31.3997 7.33472 32.8648 7.33472 34.6658C7.33472 36.4668 8.79987 37.932 10.6008 37.932C12.4017 37.932 13.867 36.4668 13.867 34.6658C13.867 34.0236 13.6806 33.4018 13.3279 32.8679Z" fill="black"/>
<path d="M31.8059 7.63696C30.7193 7.63696 29.8352 8.52103 29.8352 9.60767C29.8352 10.6943 30.7193 11.5784 31.8059 11.5784C32.8926 11.5784 33.7766 10.6943 33.7766 9.60767C33.7766 8.52103 32.8926 7.63696 31.8059 7.63696ZM31.8059 10.3902C31.3743 10.3902 31.0233 10.0391 31.0233 9.60759C31.0233 9.17603 31.3743 8.82501 31.8059 8.82501C32.2374 8.82501 32.5885 9.17603 32.5885 9.60759C32.5885 10.0391 32.2375 10.3902 31.8059 10.3902Z" fill="black"/>
</svg>
