<?xml version="1.0" encoding="UTF-8"?>
<!DOCTYPE svg PUBLIC "-//W3C//DTD SVG 1.1//EN" "http://www.w3.org/Graphics/SVG/1.1/DTD/svg11.dtd">
<!-- Creator: CorelDRAW 2019 (64-Bit) -->
<svg xmlns="http://www.w3.org/2000/svg" xml:space="preserve" width="16.6519mm" height="11.8049mm" version="1.1" style="shape-rendering:geometricPrecision; text-rendering:geometricPrecision; image-rendering:optimizeQuality; fill-rule:evenodd; clip-rule:evenodd"
viewBox="0 0 777.84 551.43"
 xmlns:xlink="http://www.w3.org/1999/xlink"
 xmlns:xodm="http://www.corel.com/coreldraw/odm/2003">
 <defs>
  <style type="text/css">
   <![CDATA[
    .fil1 {fill:black}
    .fil0 {fill:#1865AA}
   ]]>
  </style>
 </defs>
 <g id="Слой_x0020_1">
  <metadata id="CorelCorpID_0Corel-Layer"/>
  <g id="_2911670232624">
   <circle class="fil0" cx="575.83" cy="349.42" r="202.02"/>
   <path class="fil1" d="M179.83 331.94l-7.02 -31.86c-1,-4.55 -5.54,-7.46 -10.1,-6.45 -4.55,1 -7.46,5.54 -6.45,10.1l7.02 31.86c0.85,3.88 4.3,6.66 8.27,6.66 0.62,0 1.23,-0.07 1.83,-0.21 4.55,-1 7.46,-5.54 6.46,-10.1zm41.06 -280.73l28.97 12.41c1.05,0.45 2.18,0.69 3.33,0.69 3.39,0 6.46,-2.02 7.79,-5.14 1.84,-4.29 -0.17,-9.29 -4.45,-11.13l-15.16 -6.51 4.02 -1.71c34.19,-14.54 70.56,-22.99 107.8,-22.99 36.99,0 73.11,8.33 107.11,22.7l4.04 1.7 -15.86 6.81c-4.28,1.84 -6.29,6.84 -4.45,11.12 1.34,3.13 4.4,5.14 7.8,5.14 1.14,0 2.28,-0.24 3.33,-0.69l28.97 -12.41c4.21,-1.8 6.24,-6.68 4.54,-10.94l-13.79 -34.48c-1.73,-4.33 -6.69,-6.46 -11.02,-4.73 -4.33,1.73 -6.45,6.69 -4.72,11.02l4.11 10.28 -4.03 -1.58c-71.02,-27.95 -142.78,-27.67 -213.65,0.65l-4.05 1.62 4.39 -10.96c1.73,-4.33 -0.4,-9.29 -4.72,-11.02 -4.33,-1.73 -9.29,0.4 -11.02,4.73l-13.79 34.48c-1.7,4.25 0.32,9.13 4.54,10.94zm144.55 168.56l20.84 0c1.8,0 3.26,-1.46 3.26,-3.26l0 -34.46c0,-1.8 -1.46,-3.26 -3.26,-3.26l-17.92 0c-4.69,0 -8.48,-3.79 -8.48,-8.48 0,-4.69 3.79,-8.48 8.48,-8.48l17.92 0c7.24,0 13.85,3.88 17.47,10.11l0.54 0.93 44.55 0 0 -14.49c0,-7.23 5.88,-13.1 13.1,-13.1l36.49 0 15.33 -69.53c2.19,-9.92 8.1,-18.4 16.66,-23.87 8.55,-5.47 18.75,-7.28 28.67,-5.09l116.03 25.57c9.92,2.19 18.4,8.1 23.87,16.67 3.88,6.08 5.97,13.06 6,20.26 0.01,2.82 -0.3,5.64 -0.91,8.39l-54.92 249.26c-2.19,9.93 -8.1,18.4 -16.67,23.87 -6.12,3.91 -13.14,6 -20.4,6 -2.78,0 -5.55,-0.31 -8.26,-0.91l-116.03 -25.57c-9.93,-2.19 -18.4,-8.1 -23.87,-16.67 -5.47,-8.55 -7.27,-18.75 -5.09,-28.66l15.81 -71.73 -12.7 0c-7.23,0 -13.1,-5.88 -13.1,-13.1l0 -14.49 -44.55 0 -0.54 0.93c-3.62,6.23 -10.24,10.1 -17.47,10.1l-20.84 0 -11.07 0 -35.65 0c-7.24,0 -13.85,-3.87 -17.47,-10.1l-0.54 -0.93 -44.55 0 0 14.49c0,7.23 -5.88,13.1 -13.1,13.1l-12.7 0 15.81 71.73c2.19,9.91 0.38,20.11 -5.09,28.66 -5.47,8.56 -13.94,14.48 -23.87,16.67l-116.03 25.57c-2.71,0.6 -5.48,0.91 -8.26,0.91 -7.25,0 -14.28,-2.09 -20.4,-6 -8.56,-5.47 -14.48,-13.94 -16.67,-23.87l-54.92 -249.26c-0.61,-2.76 -0.92,-5.57 -0.91,-8.39 0.03,-7.21 2.12,-14.18 6,-20.26 5.47,-8.56 13.94,-14.48 23.87,-16.67l116.03 -25.57c9.91,-2.19 20.11,-0.37 28.67,5.09 8.56,5.47 14.48,13.94 16.66,23.87l15.33 69.53 36.49 0c7.23,0 13.1,5.88 13.1,13.1l0 14.49 44.55 0 0.54 -0.93c3.62,-6.23 10.24,-10.11 17.47,-10.11l17.92 0c4.69,0 8.48,3.79 8.48,8.48 0,4.69 -3.79,8.48 -8.48,8.48l-17.92 0c-1.8,0 -3.26,1.46 -3.26,3.26l0 34.46c0,1.8 1.46,3.26 3.26,3.26l35.65 0 11.07 0zm229.63 156.84l64 -290.43 -91.21 -20.1 -64 290.44 91.21 20.09zm37.54 -13.31l54.92 -249.26c1.21,-5.49 0.21,-11.15 -2.82,-15.88 -1.76,-2.76 -4.12,-5.04 -6.93,-6.72l-2.22 -1.33 -63.87 289.88 2.58 -0.27c3.25,-0.35 6.35,-1.43 9.1,-3.19 4.75,-3.03 8.03,-7.74 9.24,-13.23zm-154.39 -18.76c1.76,2.76 4.12,5.04 6.93,6.72l2.22 1.33 63.87 -289.89 -2.58 0.28c-3.25,0.35 -6.35,1.44 -9.1,3.2 -4.74,3.03 -8.03,7.73 -9.24,13.22l-54.92 249.26c-1.21,5.48 -0.21,11.15 2.82,15.88zm-12.42 -108.22l12.58 0 16.33 -74.08 -28.91 0 0 74.08zm-16.95 -46.49l-42.36 0 0 18.91 42.36 0 0 -18.91zm76.31 142.1l7.02 -31.86c1,-4.55 5.54,-7.46 10.1,-6.45 4.55,1 7.46,5.54 6.45,10.1l-7.02 31.86c-0.85,3.88 -4.3,6.66 -8.27,6.66 -0.62,0 -1.23,-0.07 -1.83,-0.21 -4.55,-1 -7.46,-5.54 -6.46,-10.1zm21.45 -57.96c-4.55,-1 -7.46,-5.55 -6.45,-10.1l35.73 -162.18c1,-4.55 5.55,-7.46 10.1,-6.45 4.55,1 7.46,5.55 6.45,10.1l-35.74 162.18c-0.85,3.88 -4.3,6.65 -8.27,6.65 -0.62,0 -1.23,-0.06 -1.83,-0.2zm57.47 -94.71c1,-4.55 5.54,-7.46 10.1,-6.45 4.55,1 7.46,5.55 6.45,10.1l-35.73 162.18c-0.85,3.88 -4.3,6.65 -8.27,6.65 -0.62,0 -1.23,-0.07 -1.83,-0.2 -4.55,-1 -7.46,-5.55 -6.45,-10.1l35.73 -162.18zm14.43 -26.1c-4.55,-1 -7.46,-5.54 -6.45,-10.1l7.02 -31.86c1,-4.55 5.54,-7.46 10.1,-6.45 4.55,1 7.46,5.55 6.45,10.1l-7.02 31.85c-0.85,3.88 -4.3,6.66 -8.27,6.66 -0.62,0 -1.23,-0.07 -1.84,-0.21zm-508.59 223.45l-64 -290.43 91.21 -20.1 64 290.44 -91.21 20.09zm-37.54 -13.31l-54.92 -249.26c-1.21,-5.49 -0.21,-11.15 2.82,-15.88 1.76,-2.76 4.12,-5.04 6.93,-6.72l2.22 -1.33 63.87 289.88 -2.58 -0.27c-3.25,-0.35 -6.35,-1.43 -9.1,-3.19 -4.75,-3.03 -8.03,-7.74 -9.24,-13.23zm154.39 -18.76c-1.76,2.76 -4.12,5.04 -6.93,6.72l-2.22 1.33 -63.87 -289.89 2.58 0.28c3.25,0.35 6.35,1.44 9.1,3.2 4.74,3.03 8.03,7.73 9.24,13.22l54.92 249.26c1.21,5.48 0.21,11.15 -2.82,15.88zm12.42 -108.22l-12.58 0 -16.33 -74.08 28.91 0 0 74.08zm16.95 -46.49l42.36 0 0 18.91 -42.36 0 0 -18.91zm-97.76 84.15c4.55,-1 7.46,-5.55 6.45,-10.1l-35.73 -162.18c-1,-4.55 -5.55,-7.46 -10.1,-6.45 -4.55,1 -7.46,5.55 -6.45,10.1l35.74 162.18c0.85,3.88 4.3,6.65 8.27,6.65 0.62,0 1.23,-0.06 1.83,-0.2zm-57.47 -94.71c-1,-4.55 -5.54,-7.46 -10.1,-6.45 -4.55,1 -7.46,5.55 -6.45,10.1l35.73 162.18c0.85,3.88 4.3,6.65 8.27,6.65 0.62,0 1.23,-0.07 1.83,-0.2 4.55,-1 7.46,-5.55 6.45,-10.1l-35.73 -162.18zm-14.43 -26.1c4.55,-1 7.46,-5.54 6.45,-10.1l-7.02 -31.86c-1,-4.55 -5.54,-7.46 -10.1,-6.45 -4.55,1 -7.46,5.55 -6.45,10.1l7.02 31.85c0.85,3.88 4.3,6.66 8.27,6.66 0.62,0 1.23,-0.07 1.84,-0.21z"/>
  </g>
 </g>
</svg>
