<?xml version="1.0" encoding="UTF-8"?>
<!DOCTYPE svg PUBLIC "-//W3C//DTD SVG 1.1//EN" "http://www.w3.org/Graphics/SVG/1.1/DTD/svg11.dtd">
<!-- Creator: CorelDRAW 2019 (64-Bit) -->
<svg xmlns="http://www.w3.org/2000/svg" xml:space="preserve" width="16.6519mm" height="15.0924mm" version="1.1" style="shape-rendering:geometricPrecision; text-rendering:geometricPrecision; image-rendering:optimizeQuality; fill-rule:evenodd; clip-rule:evenodd"
viewBox="0 0 103.27 93.6"
 xmlns:xlink="http://www.w3.org/1999/xlink"
 xmlns:xodm="http://www.corel.com/coreldraw/odm/2003">
 <defs>
  <style type="text/css">
   <![CDATA[
    .fil1 {fill:black}
    .fil0 {fill:#1865AA}
   ]]>
  </style>
 </defs>
 <g id="Слой_x0020_1">
  <metadata id="CorelCorpID_0Corel-Layer"/>
  <g id="_2911670196688">
   <circle class="fil0" cx="76.45" cy="51.96" r="26.82"/>
   <g>
    <g>
     <path class="fil1" d="M29.22 10.23l-8.82 6.43c-0.5,0.37 -0.62,1.07 -0.25,1.58 0.21,0.29 0.55,0.47 0.91,0.47 0.24,0 0.47,-0.08 0.66,-0.22l8.82 -6.43c0.5,-0.37 0.62,-1.07 0.25,-1.58 -0.37,-0.5 -1.07,-0.62 -1.58,-0.25z"/>
    </g>
    <g>
     <path class="fil1" d="M20.98 13.29c0.24,0 0.48,-0.08 0.68,-0.23l2.94 -2.21c0.5,-0.37 0.6,-1.08 0.23,-1.58 -0.37,-0.5 -1.08,-0.6 -1.58,-0.23l-2.94 2.21c-0.5,0.37 -0.6,1.08 -0.23,1.58 0.21,0.29 0.55,0.45 0.91,0.45z"/>
    </g>
    <g>
     <path class="fil1" d="M37.33 34.42l13.05 0c0.62,0 1.13,-0.51 1.13,-1.13 0,-0.62 -0.51,-1.13 -1.13,-1.13l-13.05 0c-0.62,0 -1.13,0.51 -1.13,1.13 0,0.62 0.51,1.13 1.13,1.13z"/>
    </g>
    <g>
     <path class="fil1" d="M30.35 34.42l2.57 0c0.62,0 1.13,-0.51 1.13,-1.13 0,-0.62 -0.51,-1.13 -1.13,-1.13l-2.57 0c-0.62,0 -1.13,0.51 -1.13,1.13 0,0.62 0.51,1.13 1.13,1.13z"/>
    </g>
    <g>
     <path class="fil1" d="M69.9 17.72c0.32,1.69 1.8,2.92 3.52,2.92l3.18 0c1.97,0 3.58,-1.61 3.58,-3.58l0 -1.35c0,-1.97 -1.61,-3.58 -3.58,-3.58l-3.18 0c-1.72,0 -3.2,1.23 -3.52,2.92l-0.04 0.2 -1.84 0c-0.39,0 -0.75,0.2 -0.96,0.53l-1.64 2.64 -1.8 -13.63c-0.32,-2.74 -2.63,-4.8 -5.39,-4.8l-36.28 0c-2.76,0 -5.07,2.06 -5.39,4.8l-1.8 13.63 -1.64 -2.64c-0.21,-0.33 -0.57,-0.53 -0.96,-0.53l-1.84 0 -0.04 -0.2c-0.32,-1.69 -1.8,-2.92 -3.52,-2.92l-3.18 0c-1.97,0 -3.58,1.61 -3.58,3.58l0 1.35c0,1.97 1.61,3.58 3.58,3.58l3.18 0c1.72,0 3.2,-1.23 3.52,-2.92l0.04 -0.2 1.21 0 2.17 3.5 -0.26 0.11c-2,0.87 -3.45,2.67 -3.85,4.82 -0.62,3.33 -1.01,6.71 -1.13,10.1 -0,0.04 -0.01,0.08 -0,0.15 -0.02,0.55 -0.03,1.11 -0.04,1.66 -0.01,1.78 0.67,3.45 1.92,4.72 0.44,0.44 0.94,0.82 1.48,1.12l0.13 0.07 0 5.95c0,0.35 0.05,0.7 0.15,1.04l0.1 0.32 -9.55 0c-1.46,0 -2.65,1.19 -2.65,2.65l0 1.6c0,2.18 1.66,4.01 3.82,4.23l0.22 0.02 0 2.2c0,1.83 1.49,3.31 3.31,3.31l1.52 0 25.79 11.88 -0.03 0.19c-0.06,0.31 -0.09,0.63 -0.09,0.95 0,0.37 0.04,0.74 0.12,1.11l0.04 0.19 -26.14 12.01c-0.57,0.26 -0.82,0.93 -0.56,1.5 0.19,0.4 0.59,0.66 1.03,0.66 0.16,0 0.32,-0.04 0.47,-0.1l26.2 -12.03 0.12 0.14c1.02,1.2 2.5,1.89 4.08,1.89 1.61,0 3.13,-0.72 4.15,-1.97l0.12 -0.15 26.32 12.12c0.15,0.07 0.31,0.1 0.47,0.1 0.44,0 0.84,-0.26 1.03,-0.66 0.26,-0.57 0.01,-1.24 -0.55,-1.5l-26.3 -12.12 0.04 -0.19c0.06,-0.33 0.1,-0.66 0.1,-1 0,-0.28 -0.02,-0.56 -0.07,-0.83l-0.03 -0.19 26.13 -12 1.52 0c1.83,0 3.31,-1.49 3.31,-3.31l0 -2.2 0.22 -0.02c2.16,-0.22 3.82,-2.05 3.82,-4.23l0 -1.6c0,-1.46 -1.19,-2.65 -2.65,-2.65l-9.55 0 0.1 -0.32c0.1,-0.34 0.15,-0.69 0.15,-1.04l0 -5.95 0.13 -0.07c0.55,-0.3 1.05,-0.68 1.49,-1.13 1.25,-1.26 1.93,-2.93 1.92,-4.71 -0.03,-3.99 -0.46,-7.99 -1.18,-11.91 -0.4,-2.16 -1.84,-3.96 -3.85,-4.83l-0.26 -0.11 2.17 -3.5 1.21 0 0.04 0.2zm2.2 -2.01c0,-0.73 0.59,-1.32 1.32,-1.32l3.18 0c0.73,0 1.32,0.59 1.32,1.32l0 1.35c0,0.73 -0.59,1.32 -1.32,1.32l-3.18 0c-0.73,0 -1.32,-0.59 -1.32,-1.32l0 -1.35zm-64.01 1.35c0,0.73 -0.59,1.32 -1.32,1.32l-3.18 0c-0.73,0 -1.32,-0.59 -1.32,-1.32l0 -1.35c0,-0.73 0.59,-1.32 1.32,-1.32l3.18 0c0.73,0 1.32,0.59 1.32,1.32l0 1.35zm13.86 -14.8l36.28 0c1.46,0 2.73,1 3.07,2.41l0.07 0.31 -42.57 0 0.07 -0.31c0.35,-1.42 1.61,-2.41 3.07,-2.41zm-7.74 47.47l0 -5.2 10.05 0 0 5.2c0,0.75 -0.61,1.36 -1.36,1.36l-7.33 0c-0.75,0 -1.36,-0.61 -1.36,-1.36zm15.75 -5.2l0 1.73c0,0.43 -0.35,0.79 -0.79,0.79l-2.65 0 0 -2.52 3.44 0zm18.01 0l0 1.73c0,1.68 1.37,3.05 3.05,3.05l2.65 0 0 0.42c0,0.35 0.05,0.7 0.16,1.04l0.1 0.32 -27.65 0 0.1 -0.32c0.1,-0.34 0.16,-0.69 0.16,-1.04l0 -0.42 2.65 0c1.68,0 3.05,-1.37 3.05,-3.05l0 -1.73 15.75 0zm5.7 2.52l-2.65 0c-0.43,0 -0.79,-0.35 -0.79,-0.79l0 -1.73 3.44 0 0 2.52zm-47.36 14.75l0 -2.2 5.64 0 0 2.2c0,0.58 -0.47,1.05 -1.05,1.05l-3.54 0c-0.58,0 -1.05,-0.47 -1.05,-1.05zm33.6 19.43c-1.71,0 -3.1,-1.39 -3.1,-3.1 0,-1.71 1.39,-3.1 3.1,-3.1 1.71,0 3.1,1.39 3.1,3.1 0,1.71 -1.39,3.1 -3.1,3.1zm33.97 -19.43c0,0.58 -0.47,1.05 -1.05,1.05l-3.54 0c-0.58,0 -1.05,-0.47 -1.05,-1.05l0 -2.2 5.64 0 0 2.2zm3.65 -8.45c0.22,0 0.39,0.17 0.39,0.39l0 1.6c0,1.1 -0.89,1.99 -1.99,1.99l-49.71 0c-0.62,0 -1.13,0.51 -1.13,1.13 0,0.62 0.51,1.13 1.13,1.13l39.76 0 0 2.2c0,0.92 0.38,1.79 1.05,2.41l0.27 0.25 -23.02 10.57 -0.12 -0.16c-1.02,-1.32 -2.58,-2.1 -4.25,-2.1 -1.63,0 -3.16,0.74 -4.18,2.01l-0.12 0.15 -22.73 -10.47 0.27 -0.25c0.67,-0.63 1.05,-1.5 1.05,-2.42l0 -2.2 6.5 0c0.62,0 1.13,-0.51 1.13,-1.13 0,-0.62 -0.51,-1.13 -1.13,-1.13l-16.45 0c-1.1,0 -1.99,-0.89 -1.99,-1.99l0 -1.6c0,-0.22 0.17,-0.39 0.39,-0.39l74.88 0zm-11.56 -8.82l0 5.2c0,0.75 -0.61,1.36 -1.36,1.36l-7.33 0c-0.75,0 -1.36,-0.61 -1.36,-1.36l0 -5.2 10.05 0zm-0.8 -2.26l-50.17 0c-1.16,0 -2.25,-0.45 -3.07,-1.28 -0.83,-0.83 -1.27,-1.94 -1.27,-3.11 0,-0.11 0,-0.22 0.01,-0.33l0 -0.24 13.58 0 0.07 0.12c0.14,0.25 0.31,0.49 0.5,0.71 0.88,1.02 2.15,1.6 3.49,1.6l23.52 0c1.34,0 2.62,-0.58 3.49,-1.6 0.19,-0.22 0.36,-0.46 0.5,-0.71l0.07 -0.13 13.58 0 0 0.25c0,0.11 0.01,0.22 0.01,0.33 0.01,1.17 -0.44,2.27 -1.26,3.1 -0.82,0.82 -1.91,1.28 -3.07,1.28zm-39.16 -7.48l0.55 -3.62c0.18,-1.15 1.15,-1.99 2.32,-1.99l22.41 0c1.16,0 2.14,0.84 2.32,1.99l0.55 3.62c0.05,0.32 0.03,0.66 -0.06,1 -0.01,0.03 -0.02,0.06 -0.03,0.11 -0.1,0.29 -0.24,0.55 -0.44,0.78 -0.45,0.52 -1.09,0.82 -1.78,0.82l-23.52 0c-0.68,0 -1.33,-0.3 -1.78,-0.82 -0.2,-0.23 -0.34,-0.49 -0.44,-0.79 -0.01,-0.03 -0.02,-0.06 -0.04,-0.11 -0.09,-0.32 -0.11,-0.65 -0.06,-0.97zm42.35 -8.42c0.51,2.78 0.87,5.59 1.04,8.41l0.02 0.26 -12.96 0 -0.02 -0.23c-0.01,-0.12 -0.02,-0.25 -0.04,-0.37l-0.56 -3.62c-0.35,-2.26 -2.26,-3.91 -4.55,-3.91l-22.41 0c-2.29,0 -4.2,1.64 -4.55,3.91l-0.55 3.62c-0.02,0.12 -0.03,0.24 -0.04,0.37l-0.02 0.23 -12.96 0 0.02 -0.26c0.16,-2.82 0.51,-5.64 1.03,-8.42 0.38,-2.05 2.18,-3.52 4.26,-3.52l33.12 0c0.62,0 1.13,-0.51 1.13,-1.13 0,-0.62 -0.51,-1.13 -1.13,-1.13l-32.43 0 1.76 -13.34 43.14 0 1.76 13.34 -8.73 0c-0.62,0 -1.13,0.51 -1.13,1.13 0,0.62 0.51,1.13 1.13,1.13l9.41 0c2.08,0 3.88,1.48 4.26,3.53z"/>
    </g>
    <g>
     <path class="fil1" d="M57.34 29.06c0,2.55 2.07,4.62 4.62,4.62 2.55,0 4.62,-2.07 4.62,-4.62 0,-2.55 -2.07,-4.62 -4.62,-4.62 -2.55,0 -4.62,2.07 -4.62,4.62zm6.98 0c0,1.3 -1.06,2.36 -2.36,2.36 -1.3,0 -2.36,-1.06 -2.36,-2.36 0,-1.3 1.06,-2.36 2.36,-2.36 1.3,0 2.36,1.06 2.36,2.36z"/>
    </g>
    <g>
     <path class="fil1" d="M18.22 24.44c-2.55,0 -4.62,2.07 -4.62,4.62 0,2.55 2.07,4.62 4.62,4.62 2.55,0 4.62,-2.07 4.62,-4.62 0,-2.55 -2.07,-4.62 -4.62,-4.62zm0 6.98c-1.3,0 -2.36,-1.06 -2.36,-2.36 0,-1.3 1.06,-2.36 2.36,-2.36 1.3,0 2.36,1.06 2.36,2.36 0,1.3 -1.06,2.36 -2.36,2.36z"/>
    </g>
   </g>
  </g>
 </g>
</svg>
