<?xml version="1.0" encoding="UTF-8"?>
<!DOCTYPE svg PUBLIC "-//W3C//DTD SVG 1.1//EN" "http://www.w3.org/Graphics/SVG/1.1/DTD/svg11.dtd">
<!-- Creator: CorelDRAW 2019 (64-Bit) -->
<svg xmlns="http://www.w3.org/2000/svg" xml:space="preserve" width="16.6519mm" height="15.0922mm" version="1.1" style="shape-rendering:geometricPrecision; text-rendering:geometricPrecision; image-rendering:optimizeQuality; fill-rule:evenodd; clip-rule:evenodd"
viewBox="0 0 64.38 58.35"
 xmlns:xlink="http://www.w3.org/1999/xlink"
 xmlns:xodm="http://www.corel.com/coreldraw/odm/2003">
 <defs>
  <style type="text/css">
   <![CDATA[
    .fil1 {fill:black}
    .fil0 {fill:#1865AA}
   ]]>
  </style>
 </defs>
 <g id="Слой_x0020_1">
  <metadata id="CorelCorpID_0Corel-Layer"/>
  <g id="_2911672311168">
   <circle class="fil0" cx="47.66" cy="29.18" r="16.72"/>
   <g>
    <g>
     <path class="fil1" d="M50.27 18.31c0.13,0.18 0.34,0.29 0.57,0.29 0.15,0 0.3,-0.05 0.42,-0.14 0.31,-0.23 0.38,-0.67 0.15,-0.99l-1.95 -2.64c-0.13,-0.18 -0.34,-0.29 -0.57,-0.29 -0.22,0 -0.43,0.11 -0.57,0.29l-1.95 2.64c-0.23,0.31 -0.17,0.75 0.15,0.99 0.31,0.23 0.75,0.17 0.99,-0.15l0.68 -0.92 0 22.88 -0.68 -0.92c-0.23,-0.31 -0.67,-0.38 -0.99,-0.15 -0.31,0.23 -0.38,0.67 -0.15,0.99l1.95 2.64c0.13,0.18 0.34,0.29 0.57,0.29 0.22,0 0.43,-0.11 0.57,-0.29l1.95 -2.64c0.23,-0.31 0.17,-0.75 -0.15,-0.99 -0.31,-0.23 -0.75,-0.17 -0.99,0.15l-0.68 0.92 0 -22.88 0.68 0.92z"/>
    </g>
    <g>
     <path class="fil1" d="M52.34 2.86l-7.56 0 0 -1.21c0,-0.91 -0.74,-1.65 -1.65,-1.65l-2.01 0c-0.91,0 -1.65,0.74 -1.65,1.65l0 5.45 -11.69 0 -0.04 -0.08c-0.26,-0.45 -0.73,-0.72 -1.25,-0.72l-1.27 0c-0.8,0 -1.45,0.65 -1.45,1.45l0 0.15 -4.64 0c-2.11,0 -3.82,1.71 -3.82,3.82l0 5.43 -1.7 0c-1.14,0 -2.06,0.93 -2.06,2.06l0 0.76 -7.43 0c-2.27,0 -4.12,1.85 -4.12,4.12l0 10.27c0,2.27 1.85,4.12 4.12,4.12l7.43 0 0 0.76c0,1.14 0.93,2.06 2.06,2.06l1.7 0 0 5.43c0,2.11 1.71,3.82 3.82,3.82l4.64 0 0 0.15c0,0.8 0.65,1.45 1.45,1.45l1.27 0c0.52,0 0.99,-0.28 1.25,-0.72l0.04 -0.08 11.69 0 0 5.34c0,0.91 0.74,1.65 1.65,1.65l2.01 0c0.91,0 1.65,-0.74 1.65,-1.65l0 -0.87 7.56 0c1.2,0 2.17,-0.98 2.17,-2.17l0 -48.62c0,-1.2 -0.98,-2.17 -2.17,-2.17zm-12.87 9.05l-11.54 0 0 -3.4 11.54 0 0 3.4zm-14.29 -4.21l1.34 0 0 5.01 -1.34 0 0 -5.01zm-8.46 4.01c0,-1.33 1.08,-2.41 2.41,-2.41l4.64 0 0 1.8 -4.54 0c-0.39,0 -0.7,0.32 -0.7,0.7l0 5.34 -1.8 0 0 -5.43zm-3.76 7.49c0,-0.36 0.29,-0.65 0.65,-0.65l8.02 0c0.36,0 0.65,0.29 0.65,0.65l0 0.76 -9.33 0 0 -0.76zm-11.56 15.15l0 -10.27c0,-1.5 1.22,-2.71 2.71,-2.71l27.2 0c1.5,0 2.71,1.22 2.71,2.71l0 10.27c0,1.5 -1.22,2.71 -2.71,2.71l-27.2 0c-1.5,0 -2.71,-1.22 -2.71,-2.71zm11.56 4.88l0 -0.76 9.33 0 0 0.76c0,0.36 -0.29,0.65 -0.65,0.65l-8.02 0c-0.36,0 -0.65,-0.29 -0.65,-0.65zm6.17 9.91c-1.33,0 -2.41,-1.08 -2.41,-2.41l0 -5.43 1.8 0 0 5.34c0,0.39 0.32,0.7 0.7,0.7l4.54 0 0 1.8 -4.64 0zm6.04 1.6l0 -5.01 1.34 0 0 5.01 -1.34 0zm18.18 5.95c0,0.13 -0.11,0.24 -0.24,0.24l-2.01 0c-0.13,0 -0.24,-0.11 -0.24,-0.24l0 -38.64c0,-0.39 -0.32,-0.7 -0.7,-0.7 -0.39,0 -0.7,0.32 -0.7,0.7l0 27.08 -4.05 0c-0.39,0 -0.7,0.32 -0.7,0.7 0,0.39 0.32,0.7 0.7,0.7l4.05 0 0 3.4 -11.54 0 0 -3.4 4.05 0c0.39,0 0.7,-0.32 0.7,-0.7 0,-0.39 -0.32,-0.7 -0.7,-0.7l-4.2 0 -0.04 -0.08c-0.26,-0.45 -0.73,-0.72 -1.25,-0.72l-1.27 0c-0.8,0 -1.45,0.65 -1.45,1.45l0 0.15 -3.84 0 0 -4.63 1.7 0c1.14,0 2.06,-0.93 2.06,-2.06l0 -0.76 7.62 0c2.27,0 4.12,-1.85 4.12,-4.12l0 -10.27c0,-2.27 -1.85,-4.12 -4.12,-4.12l-7.62 0 0 -0.76c0,-1.14 -0.93,-2.06 -2.06,-2.06l-1.7 0 0 -4.63 3.84 0 0 0.15c0,0.8 0.65,1.45 1.45,1.45l1.27 0c0.52,0 0.99,-0.28 1.25,-0.72l0.04 -0.08 11.69 0 0 1.3c0,0.39 0.32,0.7 0.7,0.7 0.39,0 0.7,-0.32 0.7,-0.7l0 -12.98c0,-0.13 0.11,-0.24 0.24,-0.24l2.01 0c0.13,0 0.24,0.11 0.24,0.24l0 55.06zm9.74 -3.05c0,0.42 -0.34,0.77 -0.77,0.77l-7.56 0 0 -50.15 7.56 0c0.42,0 0.77,0.34 0.77,0.77l0 48.62z"/>
    </g>
    <g>
     <path class="fil1" d="M32.1 28.53l-7.1 0c-0.39,0 -0.7,0.32 -0.7,0.7 0,0.39 0.32,0.7 0.7,0.7l7.1 0c0.39,0 0.7,-0.32 0.7,-0.7 0,-0.39 -0.32,-0.7 -0.7,-0.7z"/>
    </g>
    <g>
     <path class="fil1" d="M22.63 29.94c0.39,0 0.7,-0.32 0.7,-0.7 0,-0.39 -0.32,-0.7 -0.7,-0.7l-2 0c-0.39,0 -0.7,0.32 -0.7,0.7 0,0.39 0.32,0.7 0.7,0.7l2 0z"/>
    </g>
    <g>
     <path class="fil1" d="M3.34 29.94l14.74 0c0.39,0 0.7,-0.32 0.7,-0.7 0,-0.39 -0.32,-0.7 -0.7,-0.7l-14.74 0c-0.39,0 -0.7,0.32 -0.7,0.7 0,0.39 0.32,0.7 0.7,0.7z"/>
    </g>
    <g>
     <path class="fil1" d="M9.89 32.59l-6.55 0c-0.39,0 -0.7,0.32 -0.7,0.7 0,0.39 0.32,0.7 0.7,0.7l6.55 0c0.39,0 0.7,-0.32 0.7,-0.7 0,-0.39 -0.32,-0.7 -0.7,-0.7z"/>
    </g>
    <g>
     <path class="fil1" d="M14.26 34c0.39,0 0.7,-0.32 0.7,-0.7 0,-0.39 -0.32,-0.7 -0.7,-0.7l-2 0c-0.39,0 -0.7,0.32 -0.7,0.7 0,0.39 0.32,0.7 0.7,0.7l2 0z"/>
    </g>
    <g>
     <path class="fil1" d="M32.1 32.59l-15.29 0c-0.39,0 -0.7,0.32 -0.7,0.7 0,0.39 0.32,0.7 0.7,0.7l15.29 0c0.39,0 0.7,-0.32 0.7,-0.7 0,-0.39 -0.32,-0.7 -0.7,-0.7z"/>
    </g>
    <g>
     <path class="fil1" d="M3.34 25.88l6.55 0c0.39,0 0.7,-0.32 0.7,-0.7 0,-0.39 -0.32,-0.7 -0.7,-0.7l-6.55 0c-0.39,0 -0.7,0.32 -0.7,0.7 0,0.39 0.32,0.7 0.7,0.7z"/>
    </g>
    <g>
     <path class="fil1" d="M12.26 25.88l2 0c0.39,0 0.7,-0.32 0.7,-0.7 0,-0.39 -0.32,-0.7 -0.7,-0.7l-2 0c-0.39,0 -0.7,0.32 -0.7,0.7 0,0.39 0.32,0.7 0.7,0.7z"/>
    </g>
    <g>
     <path class="fil1" d="M16.81 25.88l15.29 0c0.39,0 0.7,-0.32 0.7,-0.7 0,-0.39 -0.32,-0.7 -0.7,-0.7l-15.29 0c-0.39,0 -0.7,0.32 -0.7,0.7 0,0.39 0.32,0.7 0.7,0.7z"/>
    </g>
   </g>
  </g>
 </g>
</svg>
