<?xml version="1.0" encoding="UTF-8"?>
<!DOCTYPE svg PUBLIC "-//W3C//DTD SVG 1.1//EN" "http://www.w3.org/Graphics/SVG/1.1/DTD/svg11.dtd">
<!-- Creator: CorelDRAW 2019 (64-Bit) -->
<svg xmlns="http://www.w3.org/2000/svg" xml:space="preserve" width="16.6519mm" height="12.8364mm" version="1.1" style="shape-rendering:geometricPrecision; text-rendering:geometricPrecision; image-rendering:optimizeQuality; fill-rule:evenodd; clip-rule:evenodd"
viewBox="0 0 140.64 108.41"
 xmlns:xlink="http://www.w3.org/1999/xlink"
 xmlns:xodm="http://www.corel.com/coreldraw/odm/2003">
 <defs>
  <style type="text/css">
   <![CDATA[
    .fil1 {fill:black}
    .fil0 {fill:#1865AA}
   ]]>
  </style>
 </defs>
 <g id="Слой_x0020_1">
  <metadata id="CorelCorpID_0Corel-Layer"/>
  <g id="_2911943711216">
   <circle class="fil0" cx="104.11" cy="69.41" r="36.52"/>
   <path class="fil1" d="M19.19 88.57l-1.69 -6.76c-0.2,-0.8 -1.02,-1.29 -1.82,-1.09 -0.8,0.2 -1.3,1.02 -1.09,1.82l0.74 2.98 -0.64 -0.43c-3.87,-2.6 -6.16,-6.93 -6.16,-11.59l0 -5.14c0,-0.83 -0.67,-1.5 -1.5,-1.5 -0.83,0 -1.5,0.67 -1.5,1.5l0 5.14c0,5.97 3.1,11.48 8.22,14.55l0.57 0.34 -2.65 0.79c-0.8,0.24 -1.25,1.08 -1.01,1.87 0.19,0.64 0.78,1.07 1.44,1.07 0.15,0 0.29,-0.02 0.43,-0.06l5.64 -1.69c0.77,-0.23 1.22,-1.03 1.03,-1.8zm89.46 -70.95l2.65 -0.79c0.8,-0.24 1.25,-1.08 1.01,-1.87 -0.24,-0.8 -1.08,-1.25 -1.87,-1.01l-5.64 1.69c-0.77,0.23 -1.22,1.03 -1.03,1.8l1.69 6.76c0.17,0.67 0.77,1.14 1.46,1.14 0.12,0 0.25,-0.02 0.37,-0.05 0.8,-0.2 1.29,-1.02 1.09,-1.82l-0.74 -2.98 0.64 0.43c3.87,2.6 6.16,6.93 6.16,11.59l0 5.14c0,0.83 0.67,1.5 1.5,1.5 0.83,0 1.5,-0.67 1.5,-1.5l0 -5.14c0,-5.97 -3.1,-11.48 -8.22,-14.55l-0.57 -0.34zm10.17 28.32l-9 0c-0.83,0 -1.5,0.67 -1.5,1.5 0,0.83 0.67,1.5 1.5,1.5l9 0c0.23,0 0.41,0.18 0.41,0.41l0 9.13c0,0.23 -0.18,0.41 -0.41,0.41l-21.09 0 0 -9.96 4.89 0c0.83,0 1.5,-0.67 1.5,-1.5 0,-0.83 -0.67,-1.5 -1.5,-1.5l-4.89 0 0 -5.23c0,-2.4 -1.95,-4.35 -4.35,-4.35l-4.39 0 0 -27.7c0,-4.78 -3.88,-8.66 -8.66,-8.66l-38.67 0c-4.78,0 -8.66,3.88 -8.66,8.66l0 27.7 -4.39 0c-2.4,0 -4.35,1.95 -4.35,4.35l0 5.23 -21.16 0c-1.72,0 -3.11,1.4 -3.11,3.11l0 9.75c0,1.72 1.4,3.11 3.11,3.11l21.16 0 0 6.36c0,2.4 1.95,4.35 4.35,4.35l4.39 0 0 27.13c0,4.78 3.88,8.66 8.66,8.66l38.67 0c4.77,0 8.66,-3.88 8.66,-8.66l0 -27.13 4.39 0c2.4,0 4.35,-1.95 4.35,-4.35l0 -6.36 21.09 0c1.89,0 3.42,-1.53 3.42,-3.42l0 -9.13c0,-1.89 -1.53,-3.42 -3.42,-3.42zm-94.56 12.96l-21.26 0 0 -9.96 21.26 0 0 9.96zm8.74 10.71l-4.39 0c-0.74,0 -1.34,-0.6 -1.34,-1.34l0 -27.56c0,-0.74 0.6,-1.34 1.34,-1.34l4.39 0 0 30.25zm7.54 35.68c-2.63,-0.53 -4.53,-2.85 -4.53,-5.54l0 -91.09c0,-2.69 1.9,-5.01 4.53,-5.54l0.35 -0.07 0 102.32 -0.35 -0.07zm37.56 0.11l-34.19 0 0 -102.4 34.19 0 0 102.4zm7.89 -5.65c0,2.68 -1.9,5.01 -4.53,5.54l-0.35 0.07 0 -102.32 0.35 0.07c2.63,0.53 4.53,2.85 4.53,5.54l0 91.09zm8.74 -31.48c0,0.74 -0.6,1.34 -1.34,1.34l-4.39 0 0 -30.25 4.39 0c0.74,0 1.34,0.6 1.34,1.34l0 27.56zm-42.74 -60.1c-0.83,0 -1.5,0.67 -1.5,1.5l0 47.35c0,0.83 0.67,1.5 1.5,1.5 0.83,0 1.5,-0.67 1.5,-1.5l0 -47.35c0,-0.83 -0.67,-1.5 -1.5,-1.5zm9.02 0c-0.83,0 -1.5,0.67 -1.5,1.5l0 21.98c0,0.83 0.67,1.5 1.5,1.5 0.83,0 1.5,-0.67 1.5,-1.5l0 -21.98c0,-0.83 -0.67,-1.5 -1.5,-1.5zm0 29.31c-0.83,0 -1.5,0.67 -1.5,1.5l0 6.2c0,0.83 0.67,1.5 1.5,1.5 0.83,0 1.5,-0.67 1.5,-1.5l0 -6.2c0,-0.83 -0.67,-1.5 -1.5,-1.5zm0 14.09c-0.83,0 -1.5,0.67 -1.5,1.5l0 45.66c0,0.83 0.67,1.5 1.5,1.5 0.83,0 1.5,-0.67 1.5,-1.5l0 -45.66c0,-0.83 -0.67,-1.5 -1.5,-1.5zm9.02 25.36c-0.83,0 -1.5,0.67 -1.5,1.5l0 20.29c0,0.83 0.67,1.5 1.5,1.5 0.83,0 1.5,-0.67 1.5,-1.5l0 -20.29c0,-0.83 -0.67,-1.5 -1.5,-1.5zm0 -13.53c-0.83,0 -1.5,0.67 -1.5,1.5l0 6.2c0,0.83 0.67,1.5 1.5,1.5 0.83,0 1.5,-0.67 1.5,-1.5l0 -6.2c0,-0.83 -0.67,-1.5 -1.5,-1.5zm0 -55.24c-0.83,0 -1.5,0.67 -1.5,1.5l0 47.35c0,0.83 0.67,1.5 1.5,1.5 0.83,0 1.5,-0.67 1.5,-1.5l0 -47.35c0,-0.83 -0.67,-1.5 -1.5,-1.5zm-18.04 68.77c-0.83,0 -1.5,0.67 -1.5,1.5l0 20.29c0,0.83 0.67,1.5 1.5,1.5 0.83,0 1.5,-0.67 1.5,-1.5l0 -20.29c0,-0.83 -0.67,-1.5 -1.5,-1.5zm0 -13.53c-0.83,0 -1.5,0.67 -1.5,1.5l0 6.2c0,0.83 0.67,1.5 1.5,1.5 0.83,0 1.5,-0.67 1.5,-1.5l0 -6.2c0,-0.83 -0.67,-1.5 -1.5,-1.5z"/>
  </g>
 </g>
</svg>
