<?xml version="1.0" encoding="UTF-8"?>
<!DOCTYPE svg PUBLIC "-//W3C//DTD SVG 1.1//EN" "http://www.w3.org/Graphics/SVG/1.1/DTD/svg11.dtd">
<!-- Creator: CorelDRAW 2019 (64-Bit) -->
<svg xmlns="http://www.w3.org/2000/svg" xml:space="preserve" width="16.6519mm" height="12.8885mm" version="1.1" style="shape-rendering:geometricPrecision; text-rendering:geometricPrecision; image-rendering:optimizeQuality; fill-rule:evenodd; clip-rule:evenodd"
viewBox="0 0 779.37 603.23"
 xmlns:xlink="http://www.w3.org/1999/xlink"
 xmlns:xodm="http://www.corel.com/coreldraw/odm/2003">
 <defs>
  <style type="text/css">
   <![CDATA[
    .fil0 {fill:#1865AA}
    .fil1 {fill:black;fill-rule:nonzero}
   ]]>
  </style>
 </defs>
 <g id="Слой_x0020_1">
  <metadata id="CorelCorpID_0Corel-Layer"/>
  <g id="_2911669421168">
   <circle class="fil0" cx="576.96" cy="202.41" r="202.41"/>
   <path class="fil1" d="M515.56 425.55l-9.75 0 -4.25 -42.91c-0.46,-4.65 -4.6,-8.05 -9.24,-7.58 -4.65,0.46 -8.04,4.6 -7.59,9.24l4.09 41.25 -42.18 0 -17.95 -330.56 27.42 0 25.06 253.25c0.46,4.64 4.59,8.04 9.25,7.58 4.64,-0.46 8.03,-4.6 7.57,-9.24l-24.97 -252.3c5.09,-1.75 8.77,-6.58 8.77,-12.25l0 -42.83c0,-7.14 -5.81,-12.96 -12.96,-12.96l-309.89 0c-4.67,0 -8.45,3.79 -8.45,8.45 0,4.67 3.79,8.45 8.45,8.45l305.95 0 0 34.93 -401.26 0 0 -34.93 59.36 0c4.67,0 8.45,-3.79 8.45,-8.45 0,-4.67 -3.79,-8.45 -8.45,-8.45l-63.3 0c-7.15,0 -12.96,5.82 -12.96,12.96l0 42.83c0,5.67 3.68,10.5 8.77,12.25l-32.78 331.27 -9.75 0c-7.14,0 -12.96,5.81 -12.96,12.96l0 42.82c0,7.14 5.82,12.96 12.96,12.96l33.77 0 0 22.68c0,16.07 13.08,29.15 29.16,29.15l44.03 0c4.67,0 8.45,-3.78 8.45,-8.45 0,-4.67 -3.78,-8.45 -8.45,-8.45l-44.03 0c-6.76,0 -12.26,-5.5 -12.26,-12.25l0 -22.68 401.26 0 0 22.68c0,6.75 -5.5,12.25 -12.26,12.25l-296.46 0c-4.67,0 -8.45,3.79 -8.45,8.45 0,4.67 3.79,8.45 8.45,8.45l30.15 0 0 48.65c0,4.67 3.78,8.45 8.45,8.45l138.98 0c4.67,0 8.45,-3.79 8.45,-8.45l0 -48.65 110.42 0c16.08,0 29.16,-13.08 29.16,-29.15l0 -22.68 33.77 0c7.14,0 12.96,-5.82 12.96,-12.96l0 -42.82c0,-7.15 -5.82,-12.96 -12.96,-12.96zm-190.26 160.77l-122.08 0 0 -40.19 122.08 0 0 40.19zm-173.47 -491.33l-11.97 330.56 -41.05 0 17.94 -330.56 35.07 0zm178.86 330.56l-5.98 -330.56 35.07 0 11.97 330.56 -41.06 0zm-16.91 0l-41.07 0 0 -330.56 35.08 0 5.99 330.56zm-57.97 0l-41.07 0 5.99 -330.56 35.08 0 0 330.56zm-57.97 0l-41.06 0 11.97 -330.56 35.07 0 -5.98 330.56zm231.87 0l-41.05 0 -11.97 -330.56 35.07 0 17.94 330.56zm-357.29 -330.56l27.42 0 -17.95 330.56 -42.18 0 32.71 -330.56zm439.2 382.39l-494.71 0 0 -34.93 10.4 0c0.95,0.37 1.97,0.57 3,0.57l467.88 0c1.04,0 2.05,-0.2 3.01,-0.57l10.4 0 0 34.93z"/>
  </g>
 </g>
</svg>
