<?xml version="1.0" encoding="UTF-8"?>
<!DOCTYPE svg PUBLIC "-//W3C//DTD SVG 1.1//EN" "http://www.w3.org/Graphics/SVG/1.1/DTD/svg11.dtd">
<!-- Creator: CorelDRAW 2019 (64-Bit) -->
<svg xmlns="http://www.w3.org/2000/svg" xml:space="preserve" width="16.6519mm" height="11.599mm" version="1.1" style="shape-rendering:geometricPrecision; text-rendering:geometricPrecision; image-rendering:optimizeQuality; fill-rule:evenodd; clip-rule:evenodd"
viewBox="0 0 103.3 71.95"
 xmlns:xlink="http://www.w3.org/1999/xlink"
 xmlns:xodm="http://www.corel.com/coreldraw/odm/2003">
 <defs>
  <style type="text/css">
   <![CDATA[
    .fil1 {fill:black}
    .fil0 {fill:#1865AA}
   ]]>
  </style>
 </defs>
 <g id="Слой_x0020_1">
  <metadata id="CorelCorpID_0Corel-Layer"/>
  <g id="_2909886927472">
   <circle class="fil0" cx="76.47" cy="45.13" r="26.83"/>
   <g>
    <g>
     <path class="fil1" d="M62.94 52.59c-0.73,0 -1.32,0.59 -1.32,1.32 0,0.73 0.59,1.32 1.32,1.32 0.73,0 1.32,-0.59 1.32,-1.32 0,-0.73 -0.59,-1.32 -1.32,-1.32z"/>
    </g>
    <g>
     <path class="fil1" d="M30.93 52.59c-0.73,0 -1.32,0.59 -1.32,1.32 0,0.73 0.59,1.32 1.32,1.32 0.73,0 1.32,-0.59 1.32,-1.32 0,-0.73 -0.59,-1.32 -1.32,-1.32z"/>
    </g>
    <g>
     <path class="fil1" d="M92.18 0.92l-0.56 -0.37c-1.49,-0.99 -3.51,-0.59 -4.5,0.9l-19.96 29.94 -0.2 -0.1c-0.47,-0.24 -1,-0.32 -1.53,-0.21 -0.62,0.12 -1.15,0.48 -1.5,1l-2.06 3.08 -0.17 -0.04c-0.95,-0.22 -1.95,0.16 -2.5,0.98l-2.02 3.03 -7.35 -5.07c-1.85,-1.27 -4.33,-1.27 -6.18,0l-8.58 5.91 -2.4 -3.26 1.02 -1.47c0.36,-0.51 0.23,-1.22 -0.29,-1.57 -0.51,-0.36 -1.22,-0.23 -1.57,0.29l-0.58 0.83 -1.95 -2.65 0.53 -0.76c0.36,-0.51 0.23,-1.22 -0.29,-1.57 -0.46,-0.32 -1.09,-0.25 -1.48,0.16l-0.2 0.22 -2.06 -2.8 0 -2.15 10.47 0c1.53,0 2.78,-1.25 2.78,-2.78l0 -4.29c0,-0.76 -0.46,-1.41 -1.17,-1.67 -0.71,-0.26 -1.49,-0.05 -1.97,0.54l-0.81 0.98 -21.73 0c-0.62,0 -1.13,0.51 -1.13,1.13 0,0.63 0.51,1.13 1.13,1.13l22.27 0c0.28,0 0.54,-0.1 0.75,-0.28l0.41 -0.36 0 2.83c0,0.28 -0.23,0.52 -0.52,0.52l-33.49 0c-0.28,0 -0.52,-0.23 -0.52,-0.52l0 -3.41 0.93 0.9c0.21,0.2 0.49,0.32 0.79,0.32l3.87 0c0.63,0 1.13,-0.51 1.13,-1.13 0,-0.62 -0.51,-1.13 -1.13,-1.13l-3.41 0 -1.42 -1.38c-0.51,-0.5 -1.27,-0.64 -1.93,-0.36 -0.66,0.28 -1.08,0.92 -1.08,1.64l0 4.55c0,1.53 1.25,2.78 2.78,2.78l10.47 0 0 4.04c0,1.63 1.33,2.95 2.95,2.95l4.44 0 3.04 4.08 -0.66 0.95c-0.36,0.51 -0.23,1.22 0.29,1.57 0.19,0.13 0.41,0.2 0.64,0.2 0.37,0 0.72,-0.18 0.93,-0.49l0.23 -0.33 1.96 2.63 -0.19 0.27c-0.36,0.51 -0.23,1.22 0.29,1.57 0.19,0.13 0.41,0.2 0.64,0.2 0.16,0 0.32,-0.04 0.46,-0.1l0.18 -0.08 0.9 1.2 -7.99 5.5 -0.14 -0.08c-1.52,-0.89 -3.24,-1.35 -5,-1.35 -5.49,0 -9.96,4.47 -9.96,9.96 0,5.49 4.47,9.96 9.96,9.96 3.94,0 7.5,-2.33 9.1,-5.92l0.07 -0.15 3.62 0 0.3 2.49c0.16,1.31 1.27,2.29 2.58,2.29l30.09 0c1.32,0 2.42,-0.98 2.58,-2.29l0.3 -2.49 3.26 0 0.07 0.15c1.6,3.59 5.16,5.92 9.1,5.92 5.49,0 9.96,-4.47 9.96,-9.96 0,-5.49 -4.47,-9.96 -9.96,-9.96 -1.76,0 -3.48,0.46 -5,1.35l-0.14 0.08 -2.48 -1.71 2.15 -3.22c0.35,-0.52 0.47,-1.15 0.35,-1.76 -0.07,-0.33 -0.2,-0.64 -0.4,-0.92l-0.1 -0.14 2.06 -3.08c0.35,-0.52 0.47,-1.15 0.35,-1.76 -0.1,-0.52 -0.38,-0.99 -0.78,-1.33l-0.17 -0.14 19.96 -29.94c0.99,-1.48 0.59,-3.51 -0.9,-4.5zm-26.31 32.33l6.01 4.01 -2.06 3.08 -6.01 -4.01 2.06 -3.08zm-17.31 2.68l1.66 1.14 0 6.62 -2.92 -0.98c-0.23,-0.08 -0.48,-0.08 -0.72,0l-2.92 0.98 0 -6.88 1.29 -0.89c1.08,-0.75 2.53,-0.75 3.61,0zm-33.05 -6.65l0 -4.04 8.04 0 0 4.04c0,0.38 -0.31,0.69 -0.69,0.69l-6.66 0c-0.38,0 -0.69,-0.31 -0.69,-0.69zm8.25 2.81c0.6,-0.19 1.13,-0.58 1.49,-1.09l0.2 -0.28 1.08 1.46 -1.5 2.17 -1.6 -2.15 0.33 -0.11zm2.7 4.17l1.49 -2.15 1.95 2.65 -1.48 2.14 -1.96 -2.63zm3.39 4.55l1.47 -2.13 1.9 2.58 -2.01 1.38 -1.36 -1.83zm-13.63 24.85c-4.24,0 -7.7,-3.45 -7.7,-7.7 0,-4.24 3.45,-7.7 7.7,-7.7 4.24,0 7.7,3.45 7.7,7.7 0,4.24 -3.45,7.7 -7.7,7.7zm40.01 -6.07c-0.63,0 -1.13,0.51 -1.13,1.13 0,0.63 0.51,1.13 1.13,1.13l6.36 0 -0.27 2.22c-0.02,0.17 -0.16,0.3 -0.33,0.3l-30.09 0c-0.17,0 -0.31,-0.13 -0.33,-0.3l-0.27 -2.22 19.42 0c0.63,0 1.13,-0.51 1.13,-1.13 0,-0.63 -0.51,-1.13 -1.13,-1.13l-24.66 0 0.04 -0.28c0.06,-0.45 0.09,-0.9 0.09,-1.35 0,-2.56 -0.98,-5 -2.75,-6.86l-0.2 -0.21 18.16 -12.51 0 6.89c0,0.36 0.17,0.71 0.47,0.92 0.29,0.21 0.68,0.27 1.02,0.16l4.06 -1.35 4.06 1.35c0.12,0.04 0.24,0.06 0.36,0.06 0.24,0 0.47,-0.07 0.66,-0.21 0.3,-0.21 0.47,-0.55 0.47,-0.92l0 -6.64 17.8 12.26 -0.2 0.21c-1.77,1.86 -2.75,4.3 -2.75,6.86 0,0.45 0.03,0.9 0.09,1.35l0.04 0.28 -11.23 0zm28.76 -1.63c0,4.24 -3.45,7.7 -7.7,7.7 -4.24,0 -7.7,-3.45 -7.7,-7.7 0,-4.24 3.45,-7.7 7.7,-7.7 4.24,0 7.7,3.45 7.7,7.7zm-25.93 -17.55l2.09 -3.14 8.83 5.89 -2.18 3.27 -8.74 -6.02zm32.14 -36.25l-19.97 29.94 -2.19 -1.46 19.97 -29.94c0.15,-0.22 0.37,-0.37 0.62,-0.42 0.25,-0.05 0.52,0 0.74,0.15l0.56 0.38c0.45,0.3 0.57,0.91 0.27,1.36z"/>
    </g>
    <g>
     <path class="fil1" d="M77.29 62.4c2.45,0 4.44,-1.99 4.44,-4.44 0,-2.45 -1.99,-4.44 -4.44,-4.44 -2.45,0 -4.44,1.99 -4.44,4.44 0,2.45 1.99,4.44 4.44,4.44zm0 -6.62c1.2,0 2.18,0.98 2.18,2.18 0,1.2 -0.98,2.18 -2.18,2.18 -1.2,0 -2.18,-0.98 -2.18,-2.18 0,-1.2 0.98,-2.18 2.18,-2.18z"/>
    </g>
    <g>
     <path class="fil1" d="M16.22 53.51c-2.45,0 -4.44,1.99 -4.44,4.44 0,2.45 1.99,4.44 4.44,4.44 2.45,0 4.44,-1.99 4.44,-4.44 0,-2.45 -1.99,-4.44 -4.44,-4.44zm0 6.62c-1.2,0 -2.18,-0.98 -2.18,-2.18 0,-1.2 0.98,-2.18 2.18,-2.18 1.2,0 2.18,0.98 2.18,2.18 0,1.2 -0.98,2.18 -2.18,2.18z"/>
    </g>
   </g>
  </g>
 </g>
</svg>
